<svg width="1920" height="433" viewBox="0 0 1920 433" fill="none" xmlns="http://www.w3.org/2000/svg">
<g clip-path="url(#clip0_136_17)">
<path d="M5 268.43C76.1906 268.43 147.357 263.735 218.584 263.735C286.606 263.735 353.269 257.879 421.346 262.692C477.84 266.687 534.093 270.247 590.727 270.777C624.977 271.097 659.909 275.752 694.129 271.95C743.623 266.451 794.443 264.399 844.212 263.735C884.598 263.197 925.539 254.901 966 254.347C994.722 253.954 1023.25 252 1052.06 252C1102.17 252 1151.55 259.041 1201.49 259.041C1233.61 259.041 1270.77 263.954 1302.41 257.868C1317.69 254.93 1336.57 258.93 1352.23 259.041C1376.14 259.211 1399.83 262.59 1423.68 263.605C1440.52 264.321 1457.78 264.307 1474.53 262.562C1508.81 258.992 1544.12 264.005 1578.59 263.735C1622.43 263.393 1666.98 260.466 1710.68 256.825C1744.86 253.976 1779.83 261.02 1814.08 261.388C1849.35 261.768 1884.82 266.082 1920.22 266.082" stroke="black" stroke-width="400" stroke-linecap="round"/>
</g>
<defs>
<clipPath id="clip0_136_17">
<rect width="1920" height="433" fill="white"/>
</clipPath>
</defs>
</svg>
