<svg width="168" height="109" viewBox="0 0 168 109" fill="none" xmlns="http://www.w3.org/2000/svg">
<path d="M6.73245 83.3958C7.2253 88.0892 7.12715 95.3019 8.27731 99.0881C9.01069 100.468 8.37364 101.794 9.2362 101.794C10.7763 101.794 12.3123 102.416 13.8388 102.335C15.7279 102.234 17.6524 100.711 19.5389 100.711C23.2398 100.711 26.9618 99.1106 30.6513 98.4267C39.6999 96.7495 48.5942 98.6046 57.6491 99.509C62.5802 100.001 67.5267 100.389 72.4585 100.741C79.2497 101.227 86.0559 101.685 92.8508 101.794C99.918 101.907 106.896 98.5489 113.957 99.1181C119.112 99.5337 124.204 101.253 129.374 101.253C134.689 101.253 139.811 101.787 145.11 103.146C149.83 104.357 155.034 106.961 159.653 102.455C161.56 100.595 162.466 95.8456 162.466 90.3701C162.466 84.2251 162.633 78.1823 162.657 72.0324C162.691 63.6368 163.41 55.1883 163.712 46.8406C164.001 38.8572 164 31.0613 164 23.0772L164 22.0696C164 17.1068 163.187 11.524 162.125 7.63987C161.502 5.36075 159.128 5.47542 158.14 5.47542C153.156 5.47542 148.234 3.13527 143.245 4.9343C140.597 5.88961 138.069 7.33314 135.383 6.97851C132.528 6.60169 129.685 6.55764 126.827 6.55764C121.285 6.55764 115.683 7.35265 110.153 6.67789C103.1 5.8173 96.0539 6.35776 89.0046 5.23492C85.5141 4.67895 82.0152 5.47542 78.5208 5.47542C75.1291 5.47542 71.9066 6.64998 68.5378 7.39938C61.7853 8.90146 54.9976 8.7221 48.2308 8.7221C42.1512 8.7221 35.9611 9.65006 29.9055 7.63987C27.079 6.70163 24.2019 7.09876 21.3607 7.09876C19.3393 7.09876 17.3943 6.36036 15.3837 6.01653C12.6745 5.55325 9.70419 2.90315 6.9775 4.51344C5.98357 5.10042 5.56209 7.52158 5.113 9.77427C4.38532 13.4244 4.3435 17.8066 4.10085 21.8291C3.89307 25.2734 4.07322 29.4402 4.05823 32.952C4.0389 37.4798 4.05823 42.0118 4.05823 46.5399C4.05823 54.1026 4.27257 60.4277 5.05973 67.7035C5.62514 72.9296 6.18229 78.1567 6.73245 83.3958Z" fill="black" stroke="black" stroke-width="7" stroke-linecap="round"/>
<path d="M11.1507 75.5348C11.6186 79.7635 11.5255 86.2622 12.6174 89.6734C13.3136 90.9164 12.7088 92.1111 13.5277 92.1111C14.9898 92.1111 16.448 92.6719 17.8973 92.5987C19.6908 92.508 21.5178 91.1361 23.3087 91.1361C26.8223 91.1361 30.3558 89.6937 33.8585 89.0776C42.4489 87.5664 50.8929 89.2378 59.4894 90.0526C64.1708 90.4964 68.8668 90.8457 73.5489 91.1631C79.9963 91.6002 86.4578 92.013 92.9087 92.1111C99.6181 92.2132 106.243 89.1876 112.946 89.7005C117.84 90.0749 122.675 91.6236 127.582 91.6236C132.628 91.6236 137.491 92.1053 142.522 93.33C147.002 94.4207 151.943 96.7664 156.328 92.707C158.139 91.0313 158.999 86.752 158.999 81.8186C158.999 76.282 159.158 70.8375 159.181 65.2965C159.213 57.7322 159.896 50.1202 160.182 42.5989C160.456 35.4059 160.456 28.3818 160.455 21.1881L160.455 20.2805C160.455 15.8091 159.683 10.779 158.675 7.27949C158.084 5.22602 155.83 5.32934 154.892 5.32934C150.16 5.32934 145.487 3.22088 140.752 4.8418C138.237 5.70252 135.837 7.00313 133.287 6.68361C130.577 6.3441 127.878 6.30441 125.165 6.30441C119.903 6.30441 114.585 7.0207 109.335 6.41275C102.639 5.63737 95.9496 6.12432 89.2572 5.11265C85.9435 4.61173 82.6217 5.32934 79.3043 5.32934C76.0842 5.32934 73.025 6.38761 69.8267 7.06281C63.4161 8.41617 56.9721 8.25457 50.5479 8.25457C44.7761 8.25457 38.8995 9.09064 33.1504 7.27949C30.4671 6.43414 27.7356 6.79195 25.0384 6.79195C23.1193 6.79195 21.2728 6.12666 19.364 5.81687C16.792 5.39946 13.972 3.01175 11.3834 4.4626C10.4398 4.99146 10.0396 7.17291 9.61329 9.20256C8.92245 12.4913 8.88275 16.4396 8.65238 20.0638C8.45512 23.1671 8.62616 26.9214 8.61192 30.0854C8.59357 34.165 8.61192 38.2483 8.61192 42.3281C8.61192 49.142 8.81541 54.8408 9.56271 61.3962C10.0995 66.1049 10.6284 70.8145 11.1507 75.5348Z" fill="white" stroke="black" stroke-width="7" stroke-linecap="round"/>
<path d="M114.866 12.2099C114.623 11.4934 114.332 11.3048 113.877 11.1257C112.884 10.758 111.201 11.3142 111.201 11.3142C111.201 11.3142 51.6205 32.6974 48.2167 35.0639C47.4838 35.573 47.2383 35.8747 47.1164 36.2235C46.528 37.9018 48.3612 38.6466 48.3612 38.6466L63.7179 43.6435C63.7179 43.6435 64.2902 43.7284 64.4942 43.5964C67.9877 41.3902 99.6427 21.4401 101.468 20.7707C101.756 20.6859 101.97 20.7801 101.913 20.9781C101.182 23.5426 73.6884 47.9334 73.6884 47.9334C73.6884 47.9334 73.5836 48.0654 73.5175 48.2162L73.4816 48.1973L72.0489 63.405C72.0489 63.405 71.4482 68.0626 76.1147 63.405C79.407 60.1146 82.5927 57.3616 84.1869 56.0322C89.4673 59.6715 95.15 63.6973 97.6027 65.7998C98.8343 66.8558 99.8647 67.0255 100.713 66.9972C103.041 66.9123 103.691 64.3573 103.691 64.3573C103.691 64.3573 114.548 20.733 114.911 14.8875C114.947 14.3124 114.996 13.9541 114.999 13.5581C115.006 13.0113 114.955 12.4645 114.866 12.2099Z" fill="white"/>
<path d="M111.886 24.0371C111.678 23.4229 111.43 23.2613 111.043 23.1077C110.195 22.7925 108.76 23.2693 108.76 23.2693C108.76 23.2693 57.941 41.5978 55.0378 43.6262C54.4127 44.0626 54.2032 44.3212 54.0993 44.6202C53.5974 46.0586 55.161 46.6971 55.161 46.6971L68.2594 50.9802C68.2594 50.9802 68.7476 51.0529 68.9216 50.9398C71.9013 49.0487 98.9012 31.9487 100.458 31.3749C100.704 31.3022 100.886 31.383 100.838 31.5527C100.214 33.7508 76.7636 54.6572 76.7636 54.6572C76.7636 54.6572 76.6742 54.7703 76.6178 54.8996L76.5872 54.8834L75.3652 67.9186C75.3652 67.9186 74.8529 71.9108 78.8331 67.9186C81.6413 65.0982 84.3584 62.7385 85.7182 61.599C90.2221 64.7184 95.0691 68.1691 97.1611 69.9713C98.2116 70.8764 99.0905 71.0218 99.8139 70.9976C101.8 70.9249 102.354 68.7348 102.354 68.7348C102.354 68.7348 111.614 31.3426 111.924 26.3322C111.954 25.8392 111.996 25.5321 112 25.1927C112.005 24.724 111.962 24.2553 111.886 24.0371Z" fill="black"/>
</svg>
