<svg width="324" height="109" viewBox="0 0 324 109" fill="none" xmlns="http://www.w3.org/2000/svg">
<path d="M9.39658 83.3958C10.37 88.0892 10.1761 95.3019 12.4477 99.0881C13.8961 100.468 12.6379 101.794 14.3415 101.794C17.3832 101.794 20.4167 102.416 23.4317 102.335C27.1627 102.234 30.9635 100.711 34.6893 100.711C41.9986 100.711 49.3496 99.1106 56.6362 98.4267C74.5072 96.7495 92.0735 98.6046 109.957 99.509C119.696 100.001 129.465 100.389 139.206 100.741C152.618 101.227 166.06 101.685 179.48 101.794C193.438 101.907 207.219 98.5489 221.165 99.1181C231.345 99.5337 241.403 101.253 251.613 101.253C262.111 101.253 272.227 101.787 282.692 103.146C292.013 104.357 302.292 106.961 311.415 102.455C315.181 100.595 316.97 95.8456 316.97 90.3701C316.97 84.2251 317.3 78.1823 317.349 72.0324C317.415 63.6368 318.835 55.1883 319.432 46.8406C320.002 38.8571 320.001 31.0612 320 23.077L320 22.0696C320 17.1068 318.394 11.524 316.296 7.63987C315.066 5.36075 310.377 5.47542 308.427 5.47542C298.583 5.47542 288.862 3.13527 279.01 4.9343C273.778 5.88961 268.786 7.33314 263.481 6.97851C257.843 6.60169 252.228 6.55764 246.584 6.55764C235.638 6.55764 224.575 7.35265 213.653 6.67789C199.723 5.8173 185.807 6.35776 171.884 5.23492C164.99 4.67895 158.08 5.47542 151.179 5.47542C144.48 5.47542 138.116 6.64998 131.462 7.39938C118.126 8.90146 104.72 8.7221 91.3558 8.7221C79.3486 8.7221 67.1232 9.65006 55.1633 7.63987C49.581 6.70163 43.8987 7.09876 38.2875 7.09876C34.2951 7.09876 30.4538 6.36036 26.4828 6.01653C21.1322 5.55325 15.2658 2.90315 9.88055 4.51344C7.91755 5.10042 7.08512 7.52158 6.19818 9.77427C4.76102 13.4244 4.67841 17.8066 4.19917 21.8291C3.78881 25.2734 4.14462 29.4402 4.115 32.952C4.07682 37.4798 4.115 42.0118 4.115 46.5399C4.115 54.1026 4.53832 60.4277 6.09296 67.7035C7.20965 72.9296 8.31002 78.1567 9.39658 83.3958Z" fill="black" stroke="black" stroke-width="7" stroke-linecap="round"/>
<path d="M18.1233 75.5348C19.0474 79.7635 18.8634 86.2622 21.02 89.6734C22.3951 90.9164 21.2006 92.1111 22.8179 92.1111C25.7056 92.1111 28.5855 92.6719 31.4478 92.5987C34.9899 92.508 38.5983 91.1361 42.1354 91.1361C49.0746 91.1361 56.0534 89.6937 62.9711 89.0776C79.9372 87.5664 96.6141 89.2378 113.592 90.0526C122.838 90.4964 132.113 90.8457 141.36 91.1631C154.093 91.6002 166.855 92.013 179.595 92.1111C192.846 92.2132 205.93 89.1876 219.169 89.7005C228.834 90.0749 238.383 91.6236 248.075 91.6236C258.042 91.6236 267.645 92.1053 277.581 93.33C286.43 94.4207 296.188 96.7664 304.849 92.707C308.425 91.0313 310.123 86.752 310.123 81.8186C310.123 76.282 310.437 70.8375 310.483 65.2965C310.545 57.7322 311.894 50.1202 312.46 42.5989C313.002 35.406 313.001 28.3819 313 21.1883L313 20.2805C313 15.8091 311.475 10.779 309.484 7.27949C308.316 5.22602 303.864 5.32934 302.013 5.32934C292.667 5.32934 283.438 3.22088 274.085 4.8418C269.119 5.70252 264.38 7.00313 259.342 6.68361C253.99 6.3441 248.659 6.30441 243.301 6.30441C232.91 6.30441 222.406 7.0207 212.037 6.41275C198.813 5.63737 185.601 6.12432 172.384 5.11265C165.839 4.61173 159.279 5.32934 152.727 5.32934C146.367 5.32934 140.325 6.38761 134.008 7.06281C121.347 8.41617 108.621 8.25457 95.9327 8.25457C84.5335 8.25457 72.9271 9.09064 61.5727 7.27949C56.2731 6.43414 50.8785 6.79195 45.5514 6.79195C41.7612 6.79195 38.1144 6.12666 34.3444 5.81687C29.2647 5.39946 23.6954 3.01175 18.5828 4.4626C16.7192 4.99146 15.9289 7.17291 15.0869 9.20256C13.7225 12.4913 13.6441 16.4396 13.1891 20.0638C12.7995 23.1671 13.1373 26.9214 13.1092 30.0854C13.0729 34.165 13.1092 38.2483 13.1092 42.3281C13.1092 49.142 13.5111 54.8408 14.987 61.3962C16.0471 66.1049 17.0918 70.8145 18.1233 75.5348Z" fill="#204FED" stroke="black" stroke-width="7" stroke-linecap="round"/>
<path d="M84.6509 66.3678C84.6509 66.743 84.5556 67.0432 84.3649 67.2683C84.1933 67.4935 83.8882 67.606 83.4497 67.606C83.2209 67.606 82.9826 67.5779 82.7347 67.5216C82.4869 67.4841 82.2485 67.4184 82.0197 67.3246C81.5431 67.1933 81.1617 67.0713 80.8757 66.9588C80.6088 66.8462 80.3991 66.6961 80.2465 66.5085C80.1131 66.3397 80.0273 66.1145 79.9892 65.8331C79.951 65.5517 79.9224 65.1671 79.9034 64.6793C79.7508 60.8333 79.5792 57.0249 79.3886 53.2539C79.217 49.4642 78.931 45.6558 78.5306 41.8285C78.2636 43.123 78.0062 44.4175 77.7584 45.712C77.5105 47.0065 77.2531 48.3198 76.9862 49.6518C76.7193 51.0401 76.4619 52.4566 76.214 53.9012C75.9852 55.3458 75.6134 56.7435 75.0986 58.0942C74.8889 58.6383 74.6315 59.0698 74.3264 59.3887C74.0214 59.6889 73.5542 59.839 72.925 59.839C72.4675 59.839 72.0957 59.764 71.8097 59.6139C71.5237 59.445 71.2472 59.2011 70.9803 58.8822C70.7324 58.6195 70.4655 58.113 70.1795 57.3626C69.8935 56.6121 69.5884 55.7397 69.2643 54.7454C68.9592 53.7323 68.6542 52.6536 68.3491 51.5092C68.0441 50.3647 67.7581 49.2672 67.4911 48.2166C67.2242 47.1473 66.9859 46.1717 66.7761 45.2899C66.5664 44.4082 66.4043 43.7421 66.2899 43.2919V47.1191C66.2899 49.6143 66.3376 52.1001 66.4329 54.5766C66.5283 57.053 66.6903 59.5201 66.9191 61.9778C66.9763 62.5218 67.0526 63.0659 67.1479 63.6099C67.2623 64.154 67.3195 64.6981 67.3195 65.2421C67.3195 65.7299 67.1479 66.0489 66.8047 66.199C66.4806 66.349 66.1183 66.4241 65.7179 66.4241C64.6312 66.4241 63.7922 66.199 63.2012 65.7487C62.6292 65.2797 62.3432 64.4917 62.3432 63.3848C62.3432 61.1147 62.286 58.8634 62.1716 56.6309C62.0572 54.3983 62 52.147 62 49.877C62 49.558 62 49.0046 62 48.2166C62.0191 47.4287 62.0381 46.5 62.0572 45.4306C62.0763 44.3425 62.0953 43.1699 62.1144 41.913C62.1525 40.6372 62.1907 39.3521 62.2288 38.0576C62.2669 36.7631 62.3051 35.5061 62.3432 34.2866C62.3813 33.0484 62.4195 31.9415 62.4576 30.966C62.4957 29.9904 62.5339 29.1837 62.572 28.5458C62.6292 27.8892 62.6864 27.4952 62.7436 27.3639C62.8389 27.1012 62.9438 26.9324 63.0582 26.8573C63.1917 26.7823 63.3918 26.7448 63.6588 26.7448C64.3833 26.7448 64.9839 26.9042 65.4606 27.2232C65.9563 27.5233 66.2899 28.0393 66.4615 28.7709C66.7285 29.1649 67.0335 29.8872 67.3767 30.9378C67.7199 31.9697 68.0822 33.1798 68.4635 34.5681C68.8448 35.9564 69.2262 37.4572 69.6075 39.0707C70.0079 40.6654 70.3797 42.2038 70.7229 43.6859C71.0851 45.168 71.4093 46.5281 71.6953 47.7664C72.0003 49.0046 72.2387 49.952 72.4103 50.6086C72.9632 47.3818 73.5256 44.1736 74.0976 40.9843C74.6696 37.7949 75.213 34.5868 75.7278 31.3599C75.8231 30.8159 75.9185 30.2812 76.0138 29.7559C76.1282 29.2306 76.1854 28.6959 76.1854 28.1518C76.1854 27.8141 76.1377 27.5046 76.0424 27.2232C75.9471 26.923 75.8994 26.6134 75.8994 26.2945C75.8994 25.9005 76.0233 25.666 76.2712 25.591C76.5381 25.4972 76.8337 25.4503 77.1578 25.4503C77.4629 25.4503 77.8251 25.4972 78.2446 25.591C78.664 25.6848 79.0644 25.8255 79.4458 26.0131C79.8462 26.2007 80.1798 26.4352 80.4467 26.7166C80.7327 26.998 80.8757 27.3264 80.8757 27.7016C80.8757 28.3582 80.8185 29.0524 80.7041 29.784C81.3905 32.9546 81.9625 36.1346 82.4201 39.324C82.8777 42.4945 83.2209 45.6933 83.4497 48.9202C83.6785 51.6968 83.8596 54.4546 83.9931 57.1937C84.1456 59.9328 84.3268 62.6719 84.5365 65.411C84.5746 65.5798 84.6032 65.7393 84.6223 65.8894C84.6414 66.0395 84.6509 66.199 84.6509 66.3678Z" fill="white"/>
<path d="M107.33 44.699C107.33 45.4869 107.311 46.4062 107.273 47.4568C107.254 48.4887 107.187 49.5956 107.073 50.7775C106.978 51.9594 106.825 53.1695 106.615 54.4077C106.425 55.6459 106.167 56.856 105.843 58.038C105.519 59.2199 105.119 60.3362 104.642 61.3868C104.165 62.4374 103.593 63.3567 102.926 64.1446C102.259 64.9326 101.487 65.5611 100.609 66.0301C99.7324 66.4804 98.7314 66.7055 97.6065 66.7055C96.4816 66.7055 95.4615 66.4522 94.5464 65.9457C93.6312 65.4204 92.859 64.7356 92.2298 63.8914C91.715 63.216 91.2574 62.3905 90.857 61.4149C90.4757 60.4206 90.1325 59.3418 89.8274 58.1787C89.5414 57.0155 89.2936 55.8054 89.0838 54.5484C88.8741 53.2914 88.7025 52.0532 88.569 50.8338C88.4546 49.6143 88.3688 48.4605 88.3116 47.3724C88.2544 46.2655 88.2258 45.2993 88.2258 44.4738C88.2258 43.0855 88.283 41.6315 88.3974 40.1119C88.5309 38.5923 88.7692 37.0914 89.1124 35.6093C89.4556 34.1084 89.9227 32.6638 90.5138 31.2755C91.1049 29.8872 91.8675 28.6396 92.8018 27.5327C92.8971 27.4202 93.0115 27.2888 93.145 27.1387C93.2975 26.9887 93.4596 26.8479 93.6312 26.7166C93.8028 26.5665 93.9744 26.4446 94.146 26.3508C94.3366 26.2382 94.5178 26.1819 94.6894 26.1819C94.8609 26.1819 95.023 26.2288 95.1755 26.3226C95.3471 26.4164 95.4901 26.5384 95.6045 26.6885C96.0049 26.4634 96.4244 26.3039 96.8629 26.2101C97.3205 26.1163 97.7781 26.0694 98.2357 26.0694C99.6275 26.0694 100.819 26.3977 101.811 27.0543C102.821 27.6922 103.66 28.5364 104.327 29.587C104.995 30.6377 105.529 31.829 105.929 33.161C106.329 34.493 106.634 35.8532 106.844 37.2415C107.054 38.6298 107.187 39.9712 107.245 41.2657C107.302 42.5602 107.33 43.7046 107.33 44.699ZM102.869 45.9372C102.869 45.4494 102.85 44.7083 102.812 43.714C102.793 42.7009 102.726 41.594 102.611 40.3933C102.497 39.1739 102.335 37.9263 102.125 36.6505C101.935 35.3748 101.668 34.221 101.324 33.1891C100.981 32.1385 100.552 31.2849 100.037 30.6283C99.5418 29.9529 98.9412 29.6152 98.2357 29.6152C97.9497 29.6152 97.6923 29.7465 97.4635 30.0092C97.2347 30.2718 97.0155 30.6095 96.8057 31.0223C96.596 31.435 96.4053 31.8853 96.2337 32.373C96.0621 32.8608 95.8905 33.3298 95.7189 33.7801C95.5473 34.2304 95.3853 34.6337 95.2327 34.9902C95.0802 35.3466 94.9181 35.5999 94.7465 35.75C94.6894 35.8063 94.594 35.8438 94.4606 35.8626C94.3462 35.8626 94.2318 35.8626 94.1174 35.8626C93.7932 35.8626 93.4882 35.8063 93.2022 35.6937C92.878 36.9695 92.6492 38.2452 92.5158 39.5209C92.4014 40.7779 92.3442 42.0537 92.3442 43.3482C92.3442 43.7421 92.3632 44.3331 92.4014 45.1211C92.4395 45.909 92.4967 46.8096 92.573 47.8226C92.6492 48.8357 92.7541 49.9239 92.8876 51.087C93.021 52.2502 93.1831 53.4134 93.3738 54.5766C93.5644 55.721 93.7837 56.8279 94.0316 57.8973C94.2985 58.9479 94.6036 59.8859 94.9467 60.7114C95.2899 61.5181 95.6713 62.1654 96.0907 62.6531C96.5102 63.1409 96.9773 63.3848 97.4921 63.3848C97.7781 63.3848 98.0355 63.3098 98.2643 63.1597C98.4931 62.9908 98.7124 62.822 98.9221 62.6531C99.4941 62.1466 99.9898 61.4806 100.409 60.6551C100.829 59.8296 101.181 58.9197 101.467 57.9254C101.753 56.9311 101.992 55.8898 102.182 54.8017C102.373 53.6948 102.516 52.6067 102.611 51.5373C102.707 50.4679 102.774 49.4548 102.812 48.498C102.85 47.5225 102.869 46.6688 102.869 45.9372Z" fill="white"/>
<path d="M129.323 64.0039C129.323 64.3416 129.285 64.6793 129.209 65.017C129.152 65.336 129.037 65.6267 128.866 65.8894C128.713 66.1333 128.504 66.3303 128.237 66.4804C127.97 66.6305 127.627 66.7055 127.207 66.7055C126.692 66.7055 126.273 66.5929 125.949 66.3678C125.644 66.1614 125.358 65.8613 125.091 65.4673C124.728 64.9607 124.404 64.3791 124.118 63.7225C123.832 63.0471 123.575 62.3623 123.346 61.6682C123.117 60.9553 122.898 60.2517 122.688 59.5576C122.498 58.8447 122.307 58.188 122.116 57.5877C121.087 54.4359 120.124 51.2934 119.228 48.1603C118.351 45.0273 117.407 41.8848 116.396 38.733C116.301 42.8041 116.225 46.8565 116.168 50.8901C116.13 54.9236 116.11 58.976 116.11 63.0471C116.11 63.2535 116.101 63.488 116.082 63.7507C116.063 64.0133 116.015 64.2666 115.939 64.5105C115.863 64.7356 115.739 64.9326 115.567 65.1014C115.415 65.2703 115.195 65.3547 114.909 65.3547C113.937 65.3547 113.193 65.1014 112.679 64.5949C112.183 64.0696 111.935 63.3285 111.935 62.3717C111.935 57.0999 111.944 51.875 111.964 46.697C111.983 41.519 111.992 36.3128 111.992 31.0785V27.0825C111.992 26.651 112.068 26.2945 112.221 26.0131C112.393 25.7129 112.755 25.5628 113.308 25.5628C113.689 25.5628 114.08 25.6191 114.48 25.7317C114.881 25.8255 115.233 25.9756 115.538 26.1819C115.863 26.3883 116.12 26.6603 116.311 26.998C116.52 27.317 116.625 27.7016 116.625 28.1518C117.426 29.6527 118.093 31.2005 118.627 32.7952C119.18 34.3898 119.714 35.9939 120.229 37.6073C120.972 39.9524 121.706 42.2976 122.431 44.6427C123.155 46.9878 123.89 49.3517 124.633 51.7343C124.519 48.1885 124.395 44.6521 124.261 41.125C124.147 37.5792 123.909 34.0428 123.546 30.5157C123.451 29.7465 123.337 28.9961 123.203 28.2644C123.089 27.5327 123.032 26.7823 123.032 26.0131C123.032 25.6191 123.165 25.3565 123.432 25.2251C123.699 25.075 124.004 25 124.347 25C124.938 25 125.443 25.0469 125.863 25.1407C126.282 25.2345 126.635 25.394 126.921 25.6191C127.207 25.8442 127.426 26.1538 127.579 26.5478C127.731 26.923 127.855 27.4014 127.951 27.983C128.065 28.9961 128.151 30.0185 128.208 31.0504C128.284 32.0635 128.351 33.0672 128.408 34.0615C128.58 36.5755 128.704 39.0707 128.78 41.5471C128.856 44.0236 128.923 46.5188 128.98 49.0327C129.037 51.5279 129.104 54.0231 129.18 56.5183C129.276 58.9948 129.323 61.49 129.323 64.0039Z" fill="white"/>
<path d="M155.95 46.106C155.95 46.7064 155.835 47.1754 155.607 47.5131C155.397 47.832 155.111 48.0759 154.749 48.2448C154.386 48.4136 153.976 48.5168 153.519 48.5543C153.08 48.5918 152.632 48.62 152.175 48.6387C153.204 49.6894 154.024 50.8994 154.634 52.269C155.244 53.6385 155.549 55.055 155.549 56.5183C155.549 57.9629 155.301 59.3794 154.806 60.7677C154.31 62.1372 153.605 63.3567 152.689 64.426C151.774 65.4954 150.678 66.3584 149.4 67.0151C148.123 67.6717 146.703 68 145.139 68C143.9 68 142.784 67.7655 141.793 67.2965C140.801 66.8274 139.915 66.1896 139.133 65.3829C138.351 64.5574 137.665 63.6099 137.074 62.5406C136.483 61.4524 135.978 60.2986 135.558 59.0792C135.139 57.841 134.786 56.5652 134.5 55.252C134.233 53.9387 134.014 52.6536 133.842 51.3966C133.69 50.1396 133.575 48.9483 133.499 47.8226C133.442 46.6782 133.413 45.6558 133.413 44.7552C133.413 43.7046 133.461 42.579 133.556 41.3783C133.671 40.1776 133.852 38.9675 134.1 37.748C134.347 36.5286 134.681 35.3373 135.101 34.1741C135.52 33.0109 136.054 31.9415 136.702 30.966C137.35 29.9716 138.113 29.1086 138.99 28.377C139.886 27.6265 140.925 27.0637 142.107 26.6885C142.546 26.5384 142.985 26.4258 143.423 26.3508C143.862 26.2757 144.3 26.2382 144.739 26.2382C146.645 26.2382 148.228 26.7448 149.486 27.7579C150.764 28.7709 151.717 30.1405 152.346 31.8665C152.461 32.1291 152.556 32.4012 152.632 32.6826C152.708 32.9452 152.747 33.2173 152.747 33.4987C152.747 33.8364 152.623 34.0521 152.375 34.1459C152.127 34.2397 151.869 34.2866 151.603 34.2866C150.916 34.2866 150.363 34.1647 149.944 33.9208C149.524 33.6769 149.172 33.3767 148.886 33.0203C148.6 32.6638 148.342 32.2699 148.113 31.8384C147.904 31.4069 147.665 31.0129 147.398 30.6564C147.131 30.3 146.798 29.9998 146.397 29.7559C145.997 29.512 145.463 29.3901 144.796 29.3901C143.843 29.3901 143.004 29.6527 142.279 30.178C141.555 30.7033 140.925 31.3975 140.392 32.2605C139.858 33.1047 139.41 34.0709 139.047 35.159C138.685 36.2284 138.399 37.3072 138.189 38.3953C137.98 39.4647 137.827 40.4965 137.732 41.4908C137.636 42.4852 137.589 43.3294 137.589 44.0236C137.589 44.7552 137.636 45.7683 137.732 47.0628C137.827 48.3573 137.98 49.7644 138.189 51.284C138.418 52.8037 138.714 54.3514 139.076 55.9274C139.457 57.4845 139.924 58.901 140.477 60.1767C141.049 61.4524 141.717 62.4937 142.479 63.3004C143.261 64.1071 144.167 64.5105 145.196 64.5105C146.092 64.5105 146.903 64.2572 147.627 63.7507C148.352 63.2254 148.962 62.5781 149.458 61.8089C149.972 61.0209 150.363 60.1861 150.63 59.3043C150.897 58.4038 151.031 57.5689 151.031 56.7997C151.031 56.0681 150.926 55.3458 150.716 54.6329C150.506 53.9012 150.211 53.2164 149.829 52.5785C149.448 51.9219 148.99 51.3216 148.457 50.7775C147.923 50.2147 147.332 49.7456 146.683 49.3704C146.455 49.2203 146.197 49.089 145.911 48.9764C145.644 48.8451 145.368 48.7325 145.082 48.6387C144.929 48.62 144.634 48.6012 144.195 48.5825C143.757 48.5449 143.309 48.498 142.851 48.4418C142.393 48.3855 141.984 48.301 141.621 48.1885C141.259 48.0572 141.078 47.8695 141.078 47.6257C141.078 47.288 141.135 46.9409 141.25 46.5844C141.364 46.228 141.526 45.909 141.736 45.6276C141.965 45.3462 142.222 45.1117 142.508 44.9241C142.813 44.7365 143.156 44.6427 143.537 44.6427C144.09 44.6427 144.681 44.7271 145.311 44.8959C145.959 45.046 146.531 45.2243 147.027 45.4306C147.98 45.3743 148.924 45.3181 149.858 45.2618C150.792 45.1867 151.717 45.0929 152.632 44.9804C152.956 44.9428 153.271 44.8959 153.576 44.8397C153.9 44.7834 154.234 44.7552 154.577 44.7552C155.035 44.7552 155.378 44.8584 155.607 45.0648C155.835 45.2712 155.95 45.6182 155.95 46.106Z" fill="white"/>
<path d="M184.149 62.2592C184.149 62.8032 184.006 63.3192 183.72 63.8069C183.434 64.276 183.043 64.623 182.547 64.8482C182.395 64.9232 182.023 64.9983 181.432 65.0733C180.841 65.1296 180.202 65.1859 179.516 65.2421C178.829 65.2984 178.172 65.3547 177.542 65.411C176.932 65.4673 176.503 65.5048 176.255 65.5236C176.198 65.8425 176.046 66.0676 175.798 66.199C175.55 66.3115 175.283 66.3678 174.997 66.3678C174.673 66.3678 174.301 66.3209 173.882 66.2271C173.462 66.1333 173.09 66.0301 172.766 65.9175C171.908 66.0301 171.041 66.1521 170.164 66.2834C169.287 66.4147 168.4 66.4804 167.504 66.4804C166.818 66.4804 166.474 66.1614 166.474 65.5236C166.474 64.8857 166.655 64.3979 167.018 64.0602C167.38 63.7225 167.819 63.4692 168.333 63.3004C168.848 63.1315 169.401 63.019 169.992 62.9627C170.583 62.9064 171.108 62.8408 171.565 62.7657C171.47 57.4376 171.365 52.147 171.25 46.894C171.155 41.6409 171.108 36.3503 171.108 31.0223C170.326 31.0785 169.563 31.1348 168.82 31.1911C168.076 31.2286 167.332 31.2474 166.589 31.2474C166.436 31.2474 166.274 31.2474 166.103 31.2474C165.931 31.2286 165.769 31.2005 165.616 31.163C165.483 31.1067 165.369 31.0316 165.273 30.9378C165.159 30.8253 165.102 30.6658 165.102 30.4594C165.102 30.103 165.178 29.7934 165.33 29.5308C165.483 29.2493 165.683 29.0242 165.931 28.8554C166.198 28.6678 166.484 28.5177 166.789 28.4051C167.094 28.2925 167.409 28.2081 167.733 28.1518C168.553 28.0017 169.382 27.8798 170.221 27.786C171.079 27.6734 171.927 27.5702 172.766 27.4764C173.624 27.3639 174.473 27.2513 175.312 27.1387C176.17 27.0262 177.018 26.8761 177.857 26.6885C178.658 26.5196 179.459 26.3039 180.259 26.0412C181.06 25.7598 181.88 25.6191 182.719 25.6191C183.177 25.6191 183.482 25.788 183.634 26.1257C183.787 26.4446 183.863 26.801 183.863 27.195C183.863 27.514 183.825 27.8235 183.749 28.1237C183.691 28.4051 183.558 28.6771 183.348 28.9398C183.234 29.0899 182.976 29.24 182.576 29.3901C182.195 29.5214 181.727 29.6433 181.175 29.7559C180.641 29.8685 180.059 29.981 179.43 30.0936C178.82 30.1874 178.219 30.2812 177.628 30.375C177.056 30.45 176.532 30.5157 176.055 30.572C175.579 30.6283 175.226 30.6658 174.997 30.6846C175.207 33.2923 175.35 35.9001 175.426 38.5079C175.521 41.1156 175.598 43.7234 175.655 46.3312C175.712 48.9389 175.769 51.5467 175.826 54.1545C175.884 56.7622 175.988 59.37 176.141 61.9778C177.228 61.8089 178.324 61.6494 179.43 61.4993C180.536 61.3305 181.651 61.2461 182.776 61.2461C183.1 61.2461 183.405 61.3211 183.691 61.4712C183.996 61.6025 184.149 61.8652 184.149 62.2592Z" fill="white"/>
<path d="M204.54 64.0039C204.54 64.3416 204.502 64.6793 204.426 65.017C204.369 65.336 204.254 65.6267 204.083 65.8894C203.93 66.1333 203.721 66.3303 203.454 66.4804C203.187 66.6305 202.844 66.7055 202.424 66.7055C201.909 66.7055 201.49 66.5929 201.166 66.3678C200.861 66.1614 200.575 65.8613 200.308 65.4673C199.945 64.9607 199.621 64.3791 199.335 63.7225C199.049 63.0471 198.792 62.3623 198.563 61.6682C198.334 60.9553 198.115 60.2517 197.905 59.5576C197.715 58.8447 197.524 58.188 197.333 57.5877C196.304 54.4359 195.341 51.2934 194.445 48.1603C193.568 45.0273 192.624 41.8848 191.613 38.733C191.518 42.8041 191.442 46.8565 191.385 50.8901C191.346 54.9236 191.327 58.976 191.327 63.0471C191.327 63.2535 191.318 63.488 191.299 63.7507C191.28 64.0133 191.232 64.2666 191.156 64.5105C191.08 64.7356 190.956 64.9326 190.784 65.1014C190.631 65.2703 190.412 65.3547 190.126 65.3547C189.154 65.3547 188.41 65.1014 187.895 64.5949C187.4 64.0696 187.152 63.3285 187.152 62.3717C187.152 57.0999 187.161 51.875 187.18 46.697C187.2 41.519 187.209 36.3128 187.209 31.0785V27.0825C187.209 26.651 187.285 26.2945 187.438 26.0131C187.609 25.7129 187.972 25.5628 188.525 25.5628C188.906 25.5628 189.297 25.6191 189.697 25.7317C190.098 25.8255 190.45 25.9756 190.755 26.1819C191.08 26.3883 191.337 26.6603 191.528 26.998C191.737 27.317 191.842 27.7016 191.842 28.1518C192.643 29.6527 193.31 31.2005 193.844 32.7952C194.397 34.3898 194.931 35.9939 195.446 37.6073C196.189 39.9524 196.923 42.2976 197.648 44.6427C198.372 46.9878 199.107 49.3517 199.85 51.7343C199.736 48.1885 199.612 44.6521 199.478 41.125C199.364 37.5792 199.126 34.0428 198.763 30.5157C198.668 29.7465 198.554 28.9961 198.42 28.2644C198.306 27.5327 198.249 26.7823 198.249 26.0131C198.249 25.6191 198.382 25.3565 198.649 25.2251C198.916 25.075 199.221 25 199.564 25C200.155 25 200.66 25.0469 201.08 25.1407C201.499 25.2345 201.852 25.394 202.138 25.6191C202.424 25.8442 202.643 26.1538 202.796 26.5478C202.948 26.923 203.072 27.4014 203.168 27.983C203.282 28.9961 203.368 30.0185 203.425 31.0504C203.501 32.0635 203.568 33.0672 203.625 34.0615C203.797 36.5755 203.921 39.0707 203.997 41.5471C204.073 44.0236 204.14 46.5188 204.197 49.0327C204.254 51.5279 204.321 54.0231 204.397 56.5183C204.493 58.9948 204.54 61.49 204.54 64.0039Z" fill="white"/>
<path d="M241.148 66.3678C241.148 66.743 241.053 67.0432 240.862 67.2683C240.69 67.4935 240.385 67.606 239.947 67.606C239.718 67.606 239.48 67.5779 239.232 67.5216C238.984 67.4841 238.746 67.4184 238.517 67.3246C238.04 67.1933 237.659 67.0713 237.373 66.9588C237.106 66.8462 236.896 66.6961 236.744 66.5085C236.61 66.3397 236.524 66.1145 236.486 65.8331C236.448 65.5517 236.419 65.1671 236.4 64.6793C236.248 60.8333 236.076 57.0249 235.886 53.2539C235.714 49.4642 235.428 45.6558 235.028 41.8285C234.761 43.123 234.503 44.4175 234.255 45.712C234.008 47.0065 233.75 48.3198 233.483 49.6518C233.216 51.0401 232.959 52.4566 232.711 53.9012C232.482 55.3458 232.11 56.7435 231.596 58.0942C231.386 58.6383 231.129 59.0698 230.823 59.3887C230.518 59.6889 230.051 59.839 229.422 59.839C228.965 59.839 228.593 59.764 228.307 59.6139C228.021 59.445 227.744 59.2011 227.477 58.8822C227.229 58.6195 226.963 58.113 226.677 57.3626C226.391 56.6121 226.085 55.7397 225.761 54.7454C225.456 53.7323 225.151 52.6536 224.846 51.5092C224.541 50.3647 224.255 49.2672 223.988 48.2166C223.721 47.1473 223.483 46.1717 223.273 45.2899C223.063 44.4082 222.901 43.7421 222.787 43.2919V47.1191C222.787 49.6143 222.835 52.1001 222.93 54.5766C223.025 57.053 223.187 59.5201 223.416 61.9778C223.473 62.5218 223.55 63.0659 223.645 63.6099C223.759 64.154 223.817 64.6981 223.817 65.2421C223.817 65.7299 223.645 66.0489 223.302 66.199C222.978 66.349 222.615 66.4241 222.215 66.4241C221.128 66.4241 220.289 66.199 219.698 65.7487C219.126 65.2797 218.84 64.4917 218.84 63.3848C218.84 61.1147 218.783 58.8634 218.669 56.6309C218.554 54.3983 218.497 52.147 218.497 49.877C218.497 49.558 218.497 49.0046 218.497 48.2166C218.516 47.4287 218.535 46.5 218.554 45.4306C218.573 44.3425 218.592 43.1699 218.611 41.913C218.65 40.6372 218.688 39.3521 218.726 38.0576C218.764 36.7631 218.802 35.5061 218.84 34.2866C218.878 33.0484 218.917 31.9415 218.955 30.966C218.993 29.9904 219.031 29.1837 219.069 28.5458C219.126 27.8892 219.183 27.4952 219.241 27.3639C219.336 27.1012 219.441 26.9324 219.555 26.8573C219.689 26.7823 219.889 26.7448 220.156 26.7448C220.88 26.7448 221.481 26.9042 221.958 27.2232C222.453 27.5233 222.787 28.0393 222.959 28.7709C223.226 29.1649 223.531 29.8872 223.874 30.9378C224.217 31.9697 224.579 33.1798 224.961 34.5681C225.342 35.9564 225.723 37.4572 226.105 39.0707C226.505 40.6654 226.877 42.2038 227.22 43.6859C227.582 45.168 227.906 46.5281 228.192 47.7664C228.497 49.0046 228.736 49.952 228.907 50.6086C229.46 47.3818 230.023 44.1736 230.595 40.9843C231.167 37.7949 231.71 34.5868 232.225 31.3599C232.32 30.8159 232.416 30.2812 232.511 29.7559C232.625 29.2306 232.682 28.6959 232.682 28.1518C232.682 27.8141 232.635 27.5046 232.539 27.2232C232.444 26.923 232.396 26.6134 232.396 26.2945C232.396 25.9005 232.52 25.666 232.768 25.591C233.035 25.4972 233.331 25.4503 233.655 25.4503C233.96 25.4503 234.322 25.4972 234.742 25.591C235.161 25.6848 235.561 25.8255 235.943 26.0131C236.343 26.2007 236.677 26.4352 236.944 26.7166C237.23 26.998 237.373 27.3264 237.373 27.7016C237.373 28.3582 237.316 29.0524 237.201 29.784C237.888 32.9546 238.46 36.1346 238.917 39.324C239.375 42.4945 239.718 45.6933 239.947 48.9202C240.176 51.6968 240.357 54.4546 240.49 57.1937C240.643 59.9328 240.824 62.6719 241.034 65.411C241.072 65.5798 241.1 65.7393 241.119 65.8894C241.138 66.0395 241.148 66.199 241.148 66.3678Z" fill="white"/>
<path d="M265 60.1767C265 60.4956 264.867 60.8052 264.6 61.1054C264.352 61.4055 264.047 61.6963 263.684 61.9778C263.322 62.2592 262.95 62.5218 262.569 62.7657C262.188 62.9908 261.873 63.1784 261.625 63.3285C260.977 63.7413 260.329 64.1259 259.68 64.4823C259.051 64.8388 258.394 65.1483 257.707 65.411C257.04 65.6736 256.344 65.88 255.619 66.0301C254.914 66.1802 254.17 66.2552 253.389 66.2552L252.931 66.3115C252.302 66.3115 251.673 66.2459 251.043 66.1145C250.433 65.9644 249.861 65.7487 249.327 65.4673C248.794 65.1671 248.317 64.7919 247.897 64.3416C247.478 63.8914 247.154 63.3473 246.925 62.7094C246.753 62.2029 246.62 61.6025 246.525 60.9084C246.429 60.2142 246.353 59.4919 246.296 58.7415C246.258 57.9911 246.22 57.2594 246.181 56.5465C246.162 55.8148 246.143 55.1675 246.124 54.6047C245.838 48.8639 245.609 43.123 245.438 37.3822C245.4 36.7256 245.371 36.0689 245.352 35.4123C245.333 34.7557 245.323 34.099 245.323 33.4424C245.323 32.3168 245.39 31.3599 245.524 30.572C245.657 29.784 245.924 29.1368 246.324 28.6302C246.725 28.1237 247.297 27.7579 248.04 27.5327C248.803 27.3076 249.804 27.195 251.043 27.195C252.283 27.195 253.522 27.2044 254.761 27.2232C256.02 27.2419 257.278 27.2513 258.536 27.2513C258.918 27.2513 259.299 27.2419 259.68 27.2232C260.062 27.1856 260.443 27.2138 260.824 27.3076C261.053 27.3451 261.253 27.4108 261.425 27.5046C261.597 27.5796 261.682 27.7579 261.682 28.0393C261.682 28.7147 261.454 29.2212 260.996 29.5589C260.538 29.8778 259.995 30.0936 259.366 30.2062C258.737 30.3187 258.079 30.375 257.393 30.375C256.725 30.3562 256.172 30.3469 255.734 30.3469H252.016C251.634 30.3469 251.253 30.3469 250.872 30.3469C250.49 30.3469 250.109 30.3656 249.728 30.4031C249.613 30.6846 249.537 30.9753 249.499 31.2755C249.461 31.5757 249.442 31.8853 249.442 32.2042C249.442 34.2491 249.489 36.2659 249.585 38.2546C249.699 40.2432 249.804 42.26 249.899 44.305C251.082 44.2112 252.254 44.0986 253.417 43.9673C254.58 43.836 255.753 43.6859 256.935 43.517C257.107 43.517 257.259 43.5076 257.393 43.4889C257.545 43.4701 257.698 43.4607 257.85 43.4607C258.251 43.4607 258.527 43.5639 258.679 43.7703C258.851 43.9767 258.937 44.2675 258.937 44.6427C258.937 44.9053 258.918 45.1492 258.88 45.3743C258.861 45.5995 258.803 45.8246 258.708 46.0497C258.575 46.425 258.355 46.697 258.05 46.8658C257.745 47.0347 257.402 47.1566 257.021 47.2317C256.639 47.288 256.239 47.3161 255.82 47.3161C255.419 47.3161 255.066 47.3255 254.761 47.3442C253.961 47.3818 253.169 47.4099 252.388 47.4287C251.625 47.4474 250.853 47.4756 250.071 47.5131C250.09 47.9071 250.119 48.498 250.157 49.286C250.195 50.074 250.233 50.9651 250.271 51.9594C250.328 52.935 250.386 53.9481 250.443 54.9987C250.519 56.0493 250.595 57.0436 250.672 57.9817C250.748 58.901 250.834 59.7077 250.929 60.4018C251.024 61.096 251.12 61.565 251.215 61.8089C251.425 62.2029 251.663 62.4655 251.93 62.5969C252.197 62.7094 252.55 62.7657 252.988 62.7657C253.694 62.7657 254.437 62.6344 255.219 62.3717C256.001 62.0903 256.763 61.7432 257.507 61.3305C258.251 60.899 258.956 60.43 259.623 59.9234C260.31 59.4169 260.901 58.9197 261.396 58.4319C261.606 58.2631 261.816 58.0942 262.026 57.9254C262.235 57.7378 262.483 57.644 262.769 57.644C263.055 57.644 263.332 57.7284 263.599 57.8973C263.866 58.0661 264.104 58.2819 264.314 58.5445C264.523 58.7884 264.685 59.0604 264.8 59.3606C264.933 59.6608 265 59.9328 265 60.1767Z" fill="white"/>
</svg>
