<svg width="241" height="111" viewBox="0 0 241 111" fill="none" xmlns="http://www.w3.org/2000/svg">
<path d="M21.5938 41.5C21.5938 42.1042 21.4375 42.6771 21.125 43.2188C20.8125 43.7396 20.3854 44.125 19.8438 44.375C19.6771 44.4583 19.2708 44.5417 18.625 44.625C17.9792 44.6875 17.2812 44.75 16.5312 44.8125C15.7812 44.875 15.0625 44.9375 14.375 45C13.7083 45.0625 13.2396 45.1042 12.9688 45.125C12.9062 45.4792 12.7396 45.7292 12.4688 45.875C12.1979 46 11.9062 46.0625 11.5938 46.0625C11.2396 46.0625 10.8333 46.0104 10.375 45.9062C9.91667 45.8021 9.51042 45.6875 9.15625 45.5625C8.21875 45.6875 7.27083 45.8229 6.3125 45.9688C5.35417 46.1146 4.38542 46.1875 3.40625 46.1875C2.65625 46.1875 2.28125 45.8333 2.28125 45.125C2.28125 44.4167 2.47917 43.875 2.875 43.5C3.27083 43.125 3.75 42.8438 4.3125 42.6562C4.875 42.4688 5.47917 42.3438 6.125 42.2812C6.77083 42.2188 7.34375 42.1458 7.84375 42.0625C7.73958 36.1458 7.625 30.2708 7.5 24.4375C7.39583 18.6042 7.34375 12.7292 7.34375 6.8125C6.48958 6.875 5.65625 6.9375 4.84375 7C4.03125 7.04167 3.21875 7.0625 2.40625 7.0625C2.23958 7.0625 2.0625 7.0625 1.875 7.0625C1.6875 7.04167 1.51042 7.01042 1.34375 6.96875C1.19792 6.90625 1.07292 6.82292 0.96875 6.71875C0.84375 6.59375 0.78125 6.41667 0.78125 6.1875C0.78125 5.79167 0.864583 5.44792 1.03125 5.15625C1.19792 4.84375 1.41667 4.59375 1.6875 4.40625C1.97917 4.19792 2.29167 4.03125 2.625 3.90625C2.95833 3.78125 3.30208 3.6875 3.65625 3.625C4.55208 3.45833 5.45833 3.32292 6.375 3.21875C7.3125 3.09375 8.23958 2.97917 9.15625 2.875C10.0938 2.75 11.0208 2.625 11.9375 2.5C12.875 2.375 13.8021 2.20833 14.7188 2C15.5938 1.8125 16.4688 1.57292 17.3438 1.28125C18.2188 0.96875 19.1146 0.8125 20.0312 0.8125C20.5312 0.8125 20.8646 1 21.0312 1.375C21.1979 1.72917 21.2812 2.125 21.2812 2.5625C21.2812 2.91667 21.2396 3.26042 21.1562 3.59375C21.0938 3.90625 20.9479 4.20833 20.7188 4.5C20.5938 4.66667 20.3125 4.83333 19.875 5C19.4583 5.14583 18.9479 5.28125 18.3438 5.40625C17.7604 5.53125 17.125 5.65625 16.4375 5.78125C15.7708 5.88542 15.1146 5.98958 14.4688 6.09375C13.8438 6.17708 13.2708 6.25 12.75 6.3125C12.2292 6.375 11.8438 6.41667 11.5938 6.4375C11.8229 9.33333 11.9792 12.2292 12.0625 15.125C12.1667 18.0208 12.25 20.9167 12.3125 23.8125C12.375 26.7083 12.4375 29.6042 12.5 32.5C12.5625 35.3958 12.6771 38.2917 12.8438 41.1875C14.0312 41 15.2292 40.8229 16.4375 40.6562C17.6458 40.4688 18.8646 40.375 20.0938 40.375C20.4479 40.375 20.7812 40.4583 21.0938 40.625C21.4271 40.7708 21.5938 41.0625 21.5938 41.5ZM43.0312 36.125C43.0312 37.6667 42.7812 39.125 42.2812 40.5C41.7812 41.875 41.0625 43.0833 40.125 44.125C39.2083 45.1458 38.0938 45.9583 36.7812 46.5625C35.4688 47.1875 34.0104 47.5 32.4062 47.5C30.9896 47.5 29.6771 47.2708 28.4688 46.8125C27.2812 46.375 26.25 45.75 25.375 44.9375C24.5 44.125 23.8125 43.1354 23.3125 41.9688C22.8333 40.8021 22.5938 39.5 22.5938 38.0625C22.5938 37.7708 22.6042 37.4062 22.625 36.9688C22.6458 36.5312 22.7083 36.1146 22.8125 35.7188C22.9375 35.3021 23.1042 34.9583 23.3125 34.6875C23.5417 34.3958 23.8646 34.25 24.2812 34.25C24.6146 34.25 24.9792 34.3229 25.375 34.4688C25.7917 34.5938 26.1771 34.7708 26.5312 35C26.8854 35.2292 27.1771 35.5104 27.4062 35.8438C27.6562 36.1562 27.7812 36.5 27.7812 36.875V38.6875C27.7812 40.125 28.1667 41.3021 28.9375 42.2188C29.7292 43.1146 30.8646 43.5625 32.3438 43.5625C33.3854 43.5625 34.2812 43.3229 35.0312 42.8438C35.7812 42.3646 36.3854 41.75 36.8438 41C37.3229 40.25 37.6667 39.4167 37.875 38.5C38.1042 37.5625 38.2188 36.6458 38.2188 35.75C38.2188 34 37.8542 32.3021 37.125 30.6562C36.4167 29.0104 35.5208 27.4062 34.4375 25.8438C33.3542 24.2604 32.1771 22.7083 30.9062 21.1875C29.6354 19.6667 28.4583 18.1562 27.375 16.6562C26.2917 15.1562 25.3854 13.6562 24.6562 12.1562C23.9479 10.6562 23.5938 9.125 23.5938 7.5625C23.5938 6.29167 23.8438 5.19792 24.3438 4.28125C24.8646 3.34375 25.5417 2.58333 26.375 2C27.2292 1.39583 28.1875 0.958333 29.25 0.6875C30.3333 0.395833 31.4479 0.25 32.5938 0.25C33.9896 0.25 35.2396 0.447917 36.3438 0.84375C37.4479 1.23958 38.3854 1.8125 39.1562 2.5625C39.9271 3.3125 40.5104 4.23958 40.9062 5.34375C41.3229 6.42708 41.5312 7.66667 41.5312 9.0625C41.5312 9.27083 41.5208 9.53125 41.5 9.84375C41.4792 10.1562 41.4271 10.4688 41.3438 10.7812C41.2604 11.0729 41.1354 11.3333 40.9688 11.5625C40.8021 11.7708 40.5729 11.875 40.2812 11.875C39.8646 11.875 39.4479 11.7708 39.0312 11.5625C38.6771 11.375 38.3854 11.1979 38.1562 11.0312C37.9479 10.8438 37.7812 10.6458 37.6562 10.4375C37.5312 10.2083 37.4375 9.95833 37.375 9.6875C37.3125 9.41667 37.2604 9.08333 37.2188 8.6875C37.1146 7.9375 36.9792 7.26042 36.8125 6.65625C36.6458 6.05208 36.3958 5.54167 36.0625 5.125C35.7292 4.70833 35.2917 4.38542 34.75 4.15625C34.2083 3.92708 33.5104 3.8125 32.6562 3.8125C32.0521 3.8125 31.4688 3.875 30.9062 4C30.3646 4.125 29.8854 4.33333 29.4688 4.625C29.0729 4.91667 28.75 5.30208 28.5 5.78125C28.2708 6.23958 28.1562 6.8125 28.1562 7.5C28.1562 8.45833 28.3646 9.4375 28.7812 10.4375C29.2188 11.4375 29.7812 12.4583 30.4688 13.5C31.1771 14.5417 31.9688 15.6146 32.8438 16.7188C33.7396 17.8021 34.6562 18.9271 35.5938 20.0938C36.5312 21.2604 37.4375 22.4688 38.3125 23.7188C39.2083 24.9479 40 26.2292 40.6875 27.5625C41.3958 28.8958 41.9583 30.2812 42.375 31.7188C42.8125 33.1354 43.0312 34.6042 43.0312 36.125ZM75.4062 3C75.4062 3.75 75.1875 4.36458 74.75 4.84375C74.3333 5.32292 73.7604 5.64583 73.0312 5.8125C71.8646 6.0625 70.6667 6.19792 69.4375 6.21875C68.2292 6.21875 67.0312 6.25 65.8438 6.3125V12.5C65.8438 17.75 66 22.9896 66.3125 28.2188C66.6458 33.4271 67.1771 38.6458 67.9062 43.875C67.9688 44.1875 68.0312 44.5 68.0938 44.8125C68.1771 45.125 68.2188 45.4375 68.2188 45.75C68.2188 46.25 68.0833 46.6146 67.8125 46.8438C67.5625 47.0729 67.1979 47.1875 66.7188 47.1875C66.3438 47.1875 65.875 47.1354 65.3125 47.0312C64.7708 46.9479 64.3438 46.8125 64.0312 46.625C63.6146 46.375 63.3438 46.125 63.2188 45.875C63.1146 45.6042 63.0312 45.25 62.9688 44.8125C62.7396 43.3333 62.5833 41.8542 62.5 40.375C62.4167 38.8958 62.3229 37.4167 62.2188 35.9375C61.9688 32.7708 61.7604 29.6146 61.5938 26.4688C61.4271 23.3229 61.3438 20.1667 61.3438 17C61.3438 15.2708 61.3542 13.5521 61.375 11.8438C61.3958 10.1354 61.4062 8.39583 61.4062 6.625C60.1146 6.75 58.8125 6.875 57.5 7C56.2083 7.125 54.9062 7.1875 53.5938 7.1875C53.2812 7.1875 53.0312 7.11458 52.8438 6.96875C52.6354 6.80208 52.5312 6.5625 52.5312 6.25C52.5312 5.52083 52.7708 4.95833 53.25 4.5625C53.7292 4.14583 54.3021 3.85417 54.9688 3.6875C56.0312 3.45833 57.1146 3.3125 58.2188 3.25C59.3229 3.16667 60.4271 3.0625 61.5312 2.9375C61.5312 2.72917 61.5417 2.53125 61.5625 2.34375C61.5833 2.13542 61.625 1.95833 61.6875 1.8125C61.7708 1.64583 61.8854 1.51042 62.0312 1.40625C62.1771 1.30208 62.3854 1.25 62.6562 1.25C63.1562 1.25 63.6667 1.36458 64.1875 1.59375C64.7083 1.82292 65.1146 2.14583 65.4062 2.5625L70.5938 2C71.0938 1.9375 71.5938 1.875 72.0938 1.8125C72.5938 1.72917 73.0938 1.6875 73.5938 1.6875C73.8229 1.6875 74.0417 1.69792 74.25 1.71875C74.4792 1.73958 74.6771 1.80208 74.8438 1.90625C75.0104 1.98958 75.1458 2.125 75.25 2.3125C75.3542 2.47917 75.4062 2.70833 75.4062 3ZM100.75 21.6875C100.75 22.625 100.51 23.2917 100.031 23.6875C99.5521 24.0625 98.875 24.3333 98 24.5C98.1875 27.7083 98.3021 30.8958 98.3438 34.0625C98.4062 37.2292 98.4375 40.4167 98.4375 43.625C98.4375 44.125 98.3333 44.5104 98.125 44.7812C97.9167 45.0521 97.5417 45.1875 97 45.1875C96.5417 45.1875 96.0833 45.1354 95.625 45.0312C95.1875 44.9271 94.7917 44.7708 94.4375 44.5625C94.0833 44.3333 93.7917 44.0417 93.5625 43.6875C93.3542 43.3125 93.25 42.8542 93.25 42.3125V32.5625C93.25 31.3333 93.25 30.1042 93.25 28.875C93.25 27.6458 93.2292 26.4167 93.1875 25.1875C91.3958 25.4375 89.6042 25.6562 87.8125 25.8438C86.0208 26.0104 84.2292 26.125 82.4375 26.1875C82.5 30.625 82.625 35.0625 82.8125 39.5C82.875 40.4167 82.9375 41.3125 83 42.1875C83.0833 43.0625 83.125 43.9375 83.125 44.8125C83.125 45.2292 83.0104 45.5417 82.7812 45.75C82.5521 45.9583 82.2292 46.0625 81.8125 46.0625C81.5 46.0625 81.1667 46.0417 80.8125 46C80.4583 45.9375 80.1042 45.8438 79.75 45.7188C79.4167 45.5938 79.1042 45.4375 78.8125 45.25C78.5208 45.0625 78.2917 44.8333 78.125 44.5625C78.0625 44.4583 78.0104 44.1458 77.9688 43.625C77.9271 43.1042 77.8854 42.4479 77.8438 41.6562C77.8229 40.8646 77.8021 39.9688 77.7812 38.9688C77.7604 37.9688 77.75 36.9375 77.75 35.875C77.75 34.8125 77.75 33.7708 77.75 32.75C77.75 31.7083 77.75 30.75 77.75 29.875C77.75 29 77.75 28.2396 77.75 27.5938C77.75 26.9479 77.75 26.5 77.75 26.25C77.4583 26.25 77.1979 26.1875 76.9688 26.0625C76.7396 25.9167 76.625 25.6875 76.625 25.375C76.625 25 76.7292 24.6458 76.9375 24.3125C77.1667 23.9583 77.4375 23.6667 77.75 23.4375V4.5625C77.75 4.14583 77.8229 3.8125 77.9688 3.5625C78.1354 3.3125 78.4375 3.1875 78.875 3.1875C79.5833 3.1875 80.1458 3.29167 80.5625 3.5C81 3.70833 81.3229 4 81.5312 4.375C81.7604 4.72917 81.9062 5.16667 81.9688 5.6875C82.0521 6.1875 82.1042 6.72917 82.125 7.3125C82.1875 9.85417 82.2292 12.3958 82.25 14.9375C82.2708 17.4792 82.3125 20.0208 82.375 22.5625C84.1667 22.3958 85.9479 22.2292 87.7188 22.0625C89.4896 21.875 91.2708 21.6042 93.0625 21.25C92.9583 19.0417 92.8229 16.8542 92.6562 14.6875C92.5104 12.5208 92.2917 10.3333 92 8.125C91.8333 7.08333 91.6354 6.05208 91.4062 5.03125C91.1771 3.98958 91.0625 2.9375 91.0625 1.875C91.0625 1.5 91.1979 1.26042 91.4688 1.15625C91.7604 1.05208 92.0625 1 92.375 1C92.875 1 93.375 1.08333 93.875 1.25C94.3958 1.41667 94.8125 1.70833 95.125 2.125C95.3125 2.39583 95.5104 2.96875 95.7188 3.84375C95.9271 4.69792 96.1146 5.71875 96.2812 6.90625C96.4688 8.09375 96.6458 9.375 96.8125 10.75C96.9792 12.125 97.125 13.4479 97.25 14.7188C97.375 15.9688 97.4792 17.1042 97.5625 18.125C97.6667 19.125 97.7292 19.8542 97.75 20.3125C98 20.25 98.2604 20.1979 98.5312 20.1562C98.8021 20.0938 99.0625 20.0625 99.3125 20.0625C99.8125 20.0625 100.177 20.2188 100.406 20.5312C100.635 20.8229 100.75 21.2083 100.75 21.6875ZM125.75 39.1875C125.75 39.5417 125.604 39.8854 125.312 40.2188C125.042 40.5521 124.708 40.875 124.312 41.1875C123.917 41.5 123.51 41.7917 123.094 42.0625C122.677 42.3125 122.333 42.5208 122.062 42.6875C121.354 43.1458 120.646 43.5729 119.938 43.9688C119.25 44.3646 118.531 44.7083 117.781 45C117.052 45.2917 116.292 45.5208 115.5 45.6875C114.729 45.8542 113.917 45.9375 113.062 45.9375L112.562 46C111.875 46 111.188 45.9271 110.5 45.7812C109.833 45.6146 109.208 45.375 108.625 45.0625C108.042 44.7292 107.521 44.3125 107.062 43.8125C106.604 43.3125 106.25 42.7083 106 42C105.812 41.4375 105.667 40.7708 105.562 40C105.458 39.2292 105.375 38.4271 105.312 37.5938C105.271 36.7604 105.229 35.9479 105.188 35.1562C105.167 34.3438 105.146 33.625 105.125 33C104.812 26.625 104.562 20.25 104.375 13.875C104.333 13.1458 104.302 12.4167 104.281 11.6875C104.26 10.9583 104.25 10.2292 104.25 9.5C104.25 8.25 104.323 7.1875 104.469 6.3125C104.615 5.4375 104.906 4.71875 105.344 4.15625C105.781 3.59375 106.406 3.1875 107.219 2.9375C108.052 2.6875 109.146 2.5625 110.5 2.5625C111.854 2.5625 113.208 2.57292 114.562 2.59375C115.938 2.61458 117.312 2.625 118.688 2.625C119.104 2.625 119.521 2.61458 119.938 2.59375C120.354 2.55208 120.771 2.58333 121.188 2.6875C121.438 2.72917 121.656 2.80208 121.844 2.90625C122.031 2.98958 122.125 3.1875 122.125 3.5C122.125 4.25 121.875 4.8125 121.375 5.1875C120.875 5.54167 120.281 5.78125 119.594 5.90625C118.906 6.03125 118.188 6.09375 117.438 6.09375C116.708 6.07292 116.104 6.0625 115.625 6.0625H111.562C111.146 6.0625 110.729 6.0625 110.312 6.0625C109.896 6.0625 109.479 6.08333 109.062 6.125C108.938 6.4375 108.854 6.76042 108.812 7.09375C108.771 7.42708 108.75 7.77083 108.75 8.125C108.75 10.3958 108.802 12.6354 108.906 14.8438C109.031 17.0521 109.146 19.2917 109.25 21.5625C110.542 21.4583 111.823 21.3333 113.094 21.1875C114.365 21.0417 115.646 20.875 116.938 20.6875C117.125 20.6875 117.292 20.6771 117.438 20.6562C117.604 20.6354 117.771 20.625 117.938 20.625C118.375 20.625 118.677 20.7396 118.844 20.9688C119.031 21.1979 119.125 21.5208 119.125 21.9375C119.125 22.2292 119.104 22.5 119.062 22.75C119.042 23 118.979 23.25 118.875 23.5C118.729 23.9167 118.49 24.2188 118.156 24.4062C117.823 24.5938 117.448 24.7292 117.031 24.8125C116.615 24.875 116.177 24.9062 115.719 24.9062C115.281 24.9062 114.896 24.9167 114.562 24.9375C113.688 24.9792 112.823 25.0104 111.969 25.0312C111.135 25.0521 110.292 25.0833 109.438 25.125C109.458 25.5625 109.49 26.2188 109.531 27.0938C109.573 27.9688 109.615 28.9583 109.656 30.0625C109.719 31.1458 109.781 32.2708 109.844 33.4375C109.927 34.6042 110.01 35.7083 110.094 36.75C110.177 37.7708 110.271 38.6667 110.375 39.4375C110.479 40.2083 110.583 40.7292 110.688 41C110.917 41.4375 111.177 41.7292 111.469 41.875C111.76 42 112.146 42.0625 112.625 42.0625C113.396 42.0625 114.208 41.9167 115.062 41.625C115.917 41.3125 116.75 40.9271 117.562 40.4688C118.375 39.9896 119.146 39.4688 119.875 38.9062C120.625 38.3438 121.271 37.7917 121.812 37.25C122.042 37.0625 122.271 36.875 122.5 36.6875C122.729 36.4792 123 36.375 123.312 36.375C123.625 36.375 123.927 36.4688 124.219 36.6562C124.51 36.8438 124.771 37.0833 125 37.375C125.229 37.6458 125.406 37.9479 125.531 38.2812C125.677 38.6146 125.75 38.9167 125.75 39.1875ZM162.25 46.0625C162.25 46.4792 162.146 46.8125 161.938 47.0625C161.75 47.3125 161.417 47.4375 160.938 47.4375C160.688 47.4375 160.427 47.4062 160.156 47.3438C159.885 47.3021 159.625 47.2292 159.375 47.125C158.854 46.9792 158.438 46.8438 158.125 46.7188C157.833 46.5938 157.604 46.4271 157.438 46.2188C157.292 46.0312 157.198 45.7812 157.156 45.4688C157.115 45.1562 157.083 44.7292 157.062 44.1875C156.896 39.9167 156.708 35.6875 156.5 31.5C156.312 27.2917 156 23.0625 155.562 18.8125C155.271 20.25 154.99 21.6875 154.719 23.125C154.448 24.5625 154.167 26.0208 153.875 27.5C153.583 29.0417 153.302 30.6146 153.031 32.2188C152.781 33.8229 152.375 35.375 151.812 36.875C151.583 37.4792 151.302 37.9583 150.969 38.3125C150.635 38.6458 150.125 38.8125 149.438 38.8125C148.938 38.8125 148.531 38.7292 148.219 38.5625C147.906 38.375 147.604 38.1042 147.312 37.75C147.042 37.4583 146.75 36.8958 146.438 36.0625C146.125 35.2292 145.792 34.2604 145.438 33.1562C145.104 32.0312 144.771 30.8333 144.438 29.5625C144.104 28.2917 143.792 27.0729 143.5 25.9062C143.208 24.7188 142.948 23.6354 142.719 22.6562C142.49 21.6771 142.312 20.9375 142.188 20.4375V24.6875C142.188 27.4583 142.24 30.2188 142.344 32.9688C142.448 35.7188 142.625 38.4583 142.875 41.1875C142.938 41.7917 143.021 42.3958 143.125 43C143.25 43.6042 143.312 44.2083 143.312 44.8125C143.312 45.3542 143.125 45.7083 142.75 45.875C142.396 46.0417 142 46.125 141.562 46.125C140.375 46.125 139.458 45.875 138.812 45.375C138.188 44.8542 137.875 43.9792 137.875 42.75C137.875 40.2292 137.812 37.7292 137.688 35.25C137.562 32.7708 137.5 30.2708 137.5 27.75C137.5 27.3958 137.5 26.7812 137.5 25.9062C137.521 25.0312 137.542 24 137.562 22.8125C137.583 21.6042 137.604 20.3021 137.625 18.9062C137.667 17.4896 137.708 16.0625 137.75 14.625C137.792 13.1875 137.833 11.7917 137.875 10.4375C137.917 9.0625 137.958 7.83333 138 6.75C138.042 5.66667 138.083 4.77083 138.125 4.0625C138.188 3.33333 138.25 2.89583 138.312 2.75C138.417 2.45833 138.531 2.27083 138.656 2.1875C138.802 2.10417 139.021 2.0625 139.312 2.0625C140.104 2.0625 140.76 2.23958 141.281 2.59375C141.823 2.92708 142.188 3.5 142.375 4.3125C142.667 4.75 143 5.55208 143.375 6.71875C143.75 7.86458 144.146 9.20833 144.562 10.75C144.979 12.2917 145.396 13.9583 145.812 15.75C146.25 17.5208 146.656 19.2292 147.031 20.875C147.427 22.5208 147.781 24.0312 148.094 25.4062C148.427 26.7812 148.688 27.8333 148.875 28.5625C149.479 24.9792 150.094 21.4167 150.719 17.875C151.344 14.3333 151.938 10.7708 152.5 7.1875C152.604 6.58333 152.708 5.98958 152.812 5.40625C152.938 4.82292 153 4.22917 153 3.625C153 3.25 152.948 2.90625 152.844 2.59375C152.74 2.26042 152.688 1.91667 152.688 1.5625C152.688 1.125 152.823 0.864583 153.094 0.78125C153.385 0.677083 153.708 0.625 154.062 0.625C154.396 0.625 154.792 0.677083 155.25 0.78125C155.708 0.885417 156.146 1.04167 156.562 1.25C157 1.45833 157.365 1.71875 157.656 2.03125C157.969 2.34375 158.125 2.70833 158.125 3.125C158.125 3.85417 158.062 4.625 157.938 5.4375C158.688 8.95833 159.312 12.4896 159.812 16.0312C160.312 19.5521 160.688 23.1042 160.938 26.6875C161.188 29.7708 161.385 32.8333 161.531 35.875C161.698 38.9167 161.896 41.9583 162.125 45C162.167 45.1875 162.198 45.3646 162.219 45.5312C162.24 45.6979 162.25 45.875 162.25 46.0625ZM187.031 22C187.031 22.875 187.01 23.8958 186.969 25.0625C186.948 26.2083 186.875 27.4375 186.75 28.75C186.646 30.0625 186.479 31.4062 186.25 32.7812C186.042 34.1562 185.76 35.5 185.406 36.8125C185.052 38.125 184.615 39.3646 184.094 40.5312C183.573 41.6979 182.948 42.7188 182.219 43.5938C181.49 44.4688 180.646 45.1667 179.688 45.6875C178.729 46.1875 177.635 46.4375 176.406 46.4375C175.177 46.4375 174.062 46.1562 173.062 45.5938C172.062 45.0104 171.219 44.25 170.531 43.3125C169.969 42.5625 169.469 41.6458 169.031 40.5625C168.615 39.4583 168.24 38.2604 167.906 36.9688C167.594 35.6771 167.323 34.3333 167.094 32.9375C166.865 31.5417 166.677 30.1667 166.531 28.8125C166.406 27.4583 166.312 26.1771 166.25 24.9688C166.188 23.7396 166.156 22.6667 166.156 21.75C166.156 20.2083 166.219 18.5938 166.344 16.9062C166.49 15.2188 166.75 13.5521 167.125 11.9062C167.5 10.2396 168.01 8.63542 168.656 7.09375C169.302 5.55208 170.135 4.16667 171.156 2.9375C171.26 2.8125 171.385 2.66667 171.531 2.5C171.698 2.33333 171.875 2.17708 172.062 2.03125C172.25 1.86458 172.438 1.72917 172.625 1.625C172.833 1.5 173.031 1.4375 173.219 1.4375C173.406 1.4375 173.583 1.48958 173.75 1.59375C173.938 1.69792 174.094 1.83333 174.219 2C174.656 1.75 175.115 1.57292 175.594 1.46875C176.094 1.36458 176.594 1.3125 177.094 1.3125C178.615 1.3125 179.917 1.67708 181 2.40625C182.104 3.11458 183.021 4.05208 183.75 5.21875C184.479 6.38542 185.062 7.70833 185.5 9.1875C185.938 10.6667 186.271 12.1771 186.5 13.7188C186.729 15.2604 186.875 16.75 186.938 18.1875C187 19.625 187.031 20.8958 187.031 22ZM182.156 23.375C182.156 22.8333 182.135 22.0104 182.094 20.9062C182.073 19.7812 182 18.5521 181.875 17.2188C181.75 15.8646 181.573 14.4792 181.344 13.0625C181.135 11.6458 180.844 10.3646 180.469 9.21875C180.094 8.05208 179.625 7.10417 179.062 6.375C178.521 5.625 177.865 5.25 177.094 5.25C176.781 5.25 176.5 5.39583 176.25 5.6875C176 5.97917 175.76 6.35417 175.531 6.8125C175.302 7.27083 175.094 7.77083 174.906 8.3125C174.719 8.85417 174.531 9.375 174.344 9.875C174.156 10.375 173.979 10.8229 173.812 11.2188C173.646 11.6146 173.469 11.8958 173.281 12.0625C173.219 12.125 173.115 12.1667 172.969 12.1875C172.844 12.1875 172.719 12.1875 172.594 12.1875C172.24 12.1875 171.906 12.125 171.594 12C171.24 13.4167 170.99 14.8333 170.844 16.25C170.719 17.6458 170.656 19.0625 170.656 20.5C170.656 20.9375 170.677 21.5938 170.719 22.4688C170.76 23.3438 170.823 24.3438 170.906 25.4688C170.99 26.5938 171.104 27.8021 171.25 29.0938C171.396 30.3854 171.573 31.6771 171.781 32.9688C171.99 34.2396 172.229 35.4688 172.5 36.6562C172.792 37.8229 173.125 38.8646 173.5 39.7812C173.875 40.6771 174.292 41.3958 174.75 41.9375C175.208 42.4792 175.719 42.75 176.281 42.75C176.594 42.75 176.875 42.6667 177.125 42.5C177.375 42.3125 177.615 42.125 177.844 41.9375C178.469 41.375 179.01 40.6354 179.469 39.7188C179.927 38.8021 180.312 37.7917 180.625 36.6875C180.938 35.5833 181.198 34.4271 181.406 33.2188C181.615 31.9896 181.771 30.7812 181.875 29.5938C181.979 28.4062 182.052 27.2812 182.094 26.2188C182.135 25.1354 182.156 24.1875 182.156 23.375ZM211.062 43.4375C211.062 43.8125 211.021 44.1875 210.938 44.5625C210.875 44.9167 210.75 45.2396 210.562 45.5312C210.396 45.8021 210.167 46.0208 209.875 46.1875C209.583 46.3542 209.208 46.4375 208.75 46.4375C208.188 46.4375 207.729 46.3125 207.375 46.0625C207.042 45.8333 206.729 45.5 206.438 45.0625C206.042 44.5 205.688 43.8542 205.375 43.125C205.062 42.375 204.781 41.6146 204.531 40.8438C204.281 40.0521 204.042 39.2708 203.812 38.5C203.604 37.7083 203.396 36.9792 203.188 36.3125C202.062 32.8125 201.01 29.3229 200.031 25.8438C199.073 22.3646 198.042 18.875 196.938 15.375C196.833 19.8958 196.75 24.3958 196.688 28.875C196.646 33.3542 196.625 37.8542 196.625 42.375C196.625 42.6042 196.615 42.8646 196.594 43.1562C196.573 43.4479 196.521 43.7292 196.438 44C196.354 44.25 196.219 44.4688 196.031 44.6562C195.865 44.8438 195.625 44.9375 195.312 44.9375C194.25 44.9375 193.438 44.6562 192.875 44.0938C192.333 43.5104 192.062 42.6875 192.062 41.625C192.062 35.7708 192.073 29.9688 192.094 24.2188C192.115 18.4688 192.125 12.6875 192.125 6.875V2.4375C192.125 1.95833 192.208 1.5625 192.375 1.25C192.562 0.916667 192.958 0.75 193.562 0.75C193.979 0.75 194.406 0.8125 194.844 0.9375C195.281 1.04167 195.667 1.20833 196 1.4375C196.354 1.66667 196.635 1.96875 196.844 2.34375C197.073 2.69792 197.188 3.125 197.188 3.625C198.062 5.29167 198.792 7.01042 199.375 8.78125C199.979 10.5521 200.562 12.3333 201.125 14.125C201.938 16.7292 202.74 19.3333 203.531 21.9375C204.323 24.5417 205.125 27.1667 205.938 29.8125C205.812 25.875 205.677 21.9479 205.531 18.0312C205.406 14.0938 205.146 10.1667 204.75 6.25C204.646 5.39583 204.521 4.5625 204.375 3.75C204.25 2.9375 204.188 2.10417 204.188 1.25C204.188 0.8125 204.333 0.520833 204.625 0.375C204.917 0.208333 205.25 0.125 205.625 0.125C206.271 0.125 206.823 0.177083 207.281 0.28125C207.74 0.385417 208.125 0.5625 208.438 0.8125C208.75 1.0625 208.99 1.40625 209.156 1.84375C209.323 2.26042 209.458 2.79167 209.562 3.4375C209.688 4.5625 209.781 5.69792 209.844 6.84375C209.927 7.96875 210 9.08333 210.062 10.1875C210.25 12.9792 210.385 15.75 210.469 18.5C210.552 21.25 210.625 24.0208 210.688 26.8125C210.75 29.5833 210.823 32.3542 210.906 35.125C211.01 37.875 211.062 40.6458 211.062 43.4375ZM240.156 23.5625C240.156 24.2292 240.031 24.75 239.781 25.125C239.552 25.4792 239.24 25.75 238.844 25.9375C238.448 26.125 238 26.2396 237.5 26.2812C237.021 26.3229 236.531 26.3542 236.031 26.375C237.156 27.5417 238.052 28.8854 238.719 30.4062C239.385 31.9271 239.719 33.5 239.719 35.125C239.719 36.7292 239.448 38.3021 238.906 39.8438C238.365 41.3646 237.594 42.7188 236.594 43.9062C235.594 45.0938 234.396 46.0521 233 46.7812C231.604 47.5104 230.052 47.875 228.344 47.875C226.99 47.875 225.771 47.6146 224.688 47.0938C223.604 46.5729 222.635 45.8646 221.781 44.9688C220.927 44.0521 220.177 43 219.531 41.8125C218.885 40.6042 218.333 39.3229 217.875 37.9688C217.417 36.5938 217.031 35.1771 216.719 33.7188C216.427 32.2604 216.188 30.8333 216 29.4375C215.833 28.0417 215.708 26.7188 215.625 25.4688C215.562 24.1979 215.531 23.0625 215.531 22.0625C215.531 20.8958 215.583 19.6458 215.688 18.3125C215.812 16.9792 216.01 15.6354 216.281 14.2812C216.552 12.9271 216.917 11.6042 217.375 10.3125C217.833 9.02083 218.417 7.83333 219.125 6.75C219.833 5.64583 220.667 4.6875 221.625 3.875C222.604 3.04167 223.74 2.41667 225.031 2C225.51 1.83333 225.99 1.70833 226.469 1.625C226.948 1.54167 227.427 1.5 227.906 1.5C229.99 1.5 231.719 2.0625 233.094 3.1875C234.49 4.3125 235.531 5.83333 236.219 7.75C236.344 8.04167 236.448 8.34375 236.531 8.65625C236.615 8.94792 236.656 9.25 236.656 9.5625C236.656 9.9375 236.521 10.1771 236.25 10.2812C235.979 10.3854 235.698 10.4375 235.406 10.4375C234.656 10.4375 234.052 10.3021 233.594 10.0312C233.135 9.76042 232.75 9.42708 232.438 9.03125C232.125 8.63542 231.844 8.19792 231.594 7.71875C231.365 7.23958 231.104 6.80208 230.812 6.40625C230.521 6.01042 230.156 5.67708 229.719 5.40625C229.281 5.13542 228.698 5 227.969 5C226.927 5 226.01 5.29167 225.219 5.875C224.427 6.45833 223.74 7.22917 223.156 8.1875C222.573 9.125 222.083 10.1979 221.688 11.4062C221.292 12.5938 220.979 13.7917 220.75 15C220.521 16.1875 220.354 17.3333 220.25 18.4375C220.146 19.5417 220.094 20.4792 220.094 21.25C220.094 22.0625 220.146 23.1875 220.25 24.625C220.354 26.0625 220.521 27.625 220.75 29.3125C221 31 221.323 32.7188 221.719 34.4688C222.135 36.1979 222.646 37.7708 223.25 39.1875C223.875 40.6042 224.604 41.7604 225.438 42.6562C226.292 43.5521 227.281 44 228.406 44C229.385 44 230.271 43.7188 231.062 43.1562C231.854 42.5729 232.521 41.8542 233.062 41C233.625 40.125 234.052 39.1979 234.344 38.2188C234.635 37.2188 234.781 36.2917 234.781 35.4375C234.781 34.625 234.667 33.8229 234.438 33.0312C234.208 32.2188 233.885 31.4583 233.469 30.75C233.052 30.0208 232.552 29.3542 231.969 28.75C231.385 28.125 230.74 27.6042 230.031 27.1875C229.781 27.0208 229.5 26.875 229.188 26.75C228.896 26.6042 228.594 26.4792 228.281 26.375C228.115 26.3542 227.792 26.3333 227.312 26.3125C226.833 26.2708 226.344 26.2188 225.844 26.1562C225.344 26.0938 224.896 26 224.5 25.875C224.104 25.7292 223.906 25.5208 223.906 25.25C223.906 24.875 223.969 24.4896 224.094 24.0938C224.219 23.6979 224.396 23.3438 224.625 23.0312C224.875 22.7188 225.156 22.4583 225.469 22.25C225.802 22.0417 226.177 21.9375 226.594 21.9375C227.198 21.9375 227.844 22.0312 228.531 22.2188C229.24 22.3854 229.865 22.5833 230.406 22.8125C231.448 22.75 232.479 22.6875 233.5 22.625C234.521 22.5417 235.531 22.4375 236.531 22.3125C236.885 22.2708 237.229 22.2188 237.562 22.1562C237.917 22.0938 238.281 22.0625 238.656 22.0625C239.156 22.0625 239.531 22.1771 239.781 22.4062C240.031 22.6354 240.156 23.0208 240.156 23.5625ZM69.9062 105.5C69.9062 106.104 69.75 106.677 69.4375 107.219C69.125 107.74 68.6979 108.125 68.1562 108.375C67.9896 108.458 67.5833 108.542 66.9375 108.625C66.2917 108.688 65.5938 108.75 64.8438 108.812C64.0938 108.875 63.375 108.938 62.6875 109C62.0208 109.062 61.5521 109.104 61.2812 109.125C61.2188 109.479 61.0521 109.729 60.7812 109.875C60.5104 110 60.2188 110.062 59.9062 110.062C59.5521 110.062 59.1458 110.01 58.6875 109.906C58.2292 109.802 57.8229 109.688 57.4688 109.562C56.5312 109.688 55.5833 109.823 54.625 109.969C53.6667 110.115 52.6979 110.188 51.7188 110.188C50.9688 110.188 50.5938 109.833 50.5938 109.125C50.5938 108.417 50.7917 107.875 51.1875 107.5C51.5833 107.125 52.0625 106.844 52.625 106.656C53.1875 106.469 53.7917 106.344 54.4375 106.281C55.0833 106.219 55.6562 106.146 56.1562 106.062C56.0521 100.146 55.9375 94.2708 55.8125 88.4375C55.7083 82.6042 55.6562 76.7292 55.6562 70.8125C54.8021 70.875 53.9688 70.9375 53.1562 71C52.3438 71.0417 51.5312 71.0625 50.7188 71.0625C50.5521 71.0625 50.375 71.0625 50.1875 71.0625C50 71.0417 49.8229 71.0104 49.6562 70.9688C49.5104 70.9062 49.3854 70.8229 49.2812 70.7188C49.1562 70.5938 49.0938 70.4167 49.0938 70.1875C49.0938 69.7917 49.1771 69.4479 49.3438 69.1562C49.5104 68.8438 49.7292 68.5938 50 68.4062C50.2917 68.1979 50.6042 68.0312 50.9375 67.9062C51.2708 67.7812 51.6146 67.6875 51.9688 67.625C52.8646 67.4583 53.7708 67.3229 54.6875 67.2188C55.625 67.0938 56.5521 66.9792 57.4688 66.875C58.4062 66.75 59.3333 66.625 60.25 66.5C61.1875 66.375 62.1146 66.2083 63.0312 66C63.9062 65.8125 64.7812 65.5729 65.6562 65.2812C66.5312 64.9688 67.4271 64.8125 68.3438 64.8125C68.8438 64.8125 69.1771 65 69.3438 65.375C69.5104 65.7292 69.5938 66.125 69.5938 66.5625C69.5938 66.9167 69.5521 67.2604 69.4688 67.5938C69.4062 67.9062 69.2604 68.2083 69.0312 68.5C68.9062 68.6667 68.625 68.8333 68.1875 69C67.7708 69.1458 67.2604 69.2812 66.6562 69.4062C66.0729 69.5312 65.4375 69.6562 64.75 69.7812C64.0833 69.8854 63.4271 69.9896 62.7812 70.0938C62.1562 70.1771 61.5833 70.25 61.0625 70.3125C60.5417 70.375 60.1562 70.4167 59.9062 70.4375C60.1354 73.3333 60.2917 76.2292 60.375 79.125C60.4792 82.0208 60.5625 84.9167 60.625 87.8125C60.6875 90.7083 60.75 93.6042 60.8125 96.5C60.875 99.3958 60.9896 102.292 61.1562 105.188C62.3438 105 63.5417 104.823 64.75 104.656C65.9583 104.469 67.1771 104.375 68.4062 104.375C68.7604 104.375 69.0938 104.458 69.4062 104.625C69.7396 104.771 69.9062 105.062 69.9062 105.5ZM92.1875 107.438C92.1875 107.812 92.1458 108.188 92.0625 108.562C92 108.917 91.875 109.24 91.6875 109.531C91.5208 109.802 91.2917 110.021 91 110.188C90.7083 110.354 90.3333 110.438 89.875 110.438C89.3125 110.438 88.8542 110.312 88.5 110.062C88.1667 109.833 87.8542 109.5 87.5625 109.062C87.1667 108.5 86.8125 107.854 86.5 107.125C86.1875 106.375 85.9062 105.615 85.6562 104.844C85.4062 104.052 85.1667 103.271 84.9375 102.5C84.7292 101.708 84.5208 100.979 84.3125 100.312C83.1875 96.8125 82.1354 93.3229 81.1562 89.8438C80.1979 86.3646 79.1667 82.875 78.0625 79.375C77.9583 83.8958 77.875 88.3958 77.8125 92.875C77.7708 97.3542 77.75 101.854 77.75 106.375C77.75 106.604 77.7396 106.865 77.7188 107.156C77.6979 107.448 77.6458 107.729 77.5625 108C77.4792 108.25 77.3438 108.469 77.1562 108.656C76.9896 108.844 76.75 108.938 76.4375 108.938C75.375 108.938 74.5625 108.656 74 108.094C73.4583 107.51 73.1875 106.688 73.1875 105.625C73.1875 99.7708 73.1979 93.9688 73.2188 88.2188C73.2396 82.4688 73.25 76.6875 73.25 70.875V66.4375C73.25 65.9583 73.3333 65.5625 73.5 65.25C73.6875 64.9167 74.0833 64.75 74.6875 64.75C75.1042 64.75 75.5312 64.8125 75.9688 64.9375C76.4062 65.0417 76.7917 65.2083 77.125 65.4375C77.4792 65.6667 77.7604 65.9688 77.9688 66.3438C78.1979 66.6979 78.3125 67.125 78.3125 67.625C79.1875 69.2917 79.9167 71.0104 80.5 72.7812C81.1042 74.5521 81.6875 76.3333 82.25 78.125C83.0625 80.7292 83.8646 83.3333 84.6562 85.9375C85.4479 88.5417 86.25 91.1667 87.0625 93.8125C86.9375 89.875 86.8021 85.9479 86.6562 82.0312C86.5312 78.0938 86.2708 74.1667 85.875 70.25C85.7708 69.3958 85.6458 68.5625 85.5 67.75C85.375 66.9375 85.3125 66.1042 85.3125 65.25C85.3125 64.8125 85.4583 64.5208 85.75 64.375C86.0417 64.2083 86.375 64.125 86.75 64.125C87.3958 64.125 87.9479 64.1771 88.4062 64.2812C88.8646 64.3854 89.25 64.5625 89.5625 64.8125C89.875 65.0625 90.1146 65.4062 90.2812 65.8438C90.4479 66.2604 90.5833 66.7917 90.6875 67.4375C90.8125 68.5625 90.9062 69.6979 90.9688 70.8438C91.0521 71.9688 91.125 73.0833 91.1875 74.1875C91.375 76.9792 91.5104 79.75 91.5938 82.5C91.6771 85.25 91.75 88.0208 91.8125 90.8125C91.875 93.5833 91.9479 96.3542 92.0312 99.125C92.1354 101.875 92.1875 104.646 92.1875 107.438ZM122.594 65.1875C122.594 65.625 122.458 66.4271 122.188 67.5938C121.917 68.7396 121.573 70.0833 121.156 71.625C120.74 73.1458 120.271 74.7708 119.75 76.5C119.229 78.2083 118.719 79.8542 118.219 81.4375C117.719 83 117.26 84.3958 116.844 85.625C116.427 86.8542 116.115 87.75 115.906 88.3125C116.135 90.1667 116.292 92.0104 116.375 93.8438C116.458 95.6771 116.552 97.5208 116.656 99.375C116.76 100.938 116.854 102.51 116.938 104.094C117.042 105.677 117.094 107.25 117.094 108.812C117.094 109.292 116.969 109.667 116.719 109.938C116.49 110.188 116.135 110.312 115.656 110.312C115.469 110.312 115.219 110.281 114.906 110.219C114.594 110.177 114.271 110.104 113.938 110C113.625 109.917 113.323 109.812 113.031 109.688C112.76 109.562 112.573 109.438 112.469 109.312C112.219 109.021 112.062 108.75 112 108.5C111.938 108.229 111.906 107.917 111.906 107.562C111.906 104.333 111.875 101.125 111.812 97.9375C111.75 94.75 111.719 91.5417 111.719 88.3125L111.469 88.0625C111.344 87.875 111.198 87.6146 111.031 87.2812C110.885 86.9271 110.729 86.5625 110.562 86.1875C110.417 85.8125 110.281 85.4479 110.156 85.0938C110.031 84.7396 109.927 84.4583 109.844 84.25C109.156 82.3333 108.51 80.4167 107.906 78.5C107.302 76.5833 106.656 74.6667 105.969 72.75C105.865 72.4167 105.698 71.9688 105.469 71.4062C105.24 70.8229 105.01 70.2188 104.781 69.5938C104.552 68.9688 104.354 68.3854 104.188 67.8438C104 67.2812 103.906 66.8542 103.906 66.5625C103.906 66.3333 103.969 66.1458 104.094 66C104.219 65.8542 104.375 65.75 104.562 65.6875C104.75 65.6042 104.948 65.5521 105.156 65.5312C105.365 65.5104 105.552 65.5 105.719 65.5C106.26 65.5 106.76 65.5312 107.219 65.5938C107.698 65.6354 108.177 65.8125 108.656 66.125C108.781 66.2083 108.979 66.5938 109.25 67.2812C109.521 67.9688 109.823 68.8229 110.156 69.8438C110.49 70.8646 110.833 71.9688 111.188 73.1562C111.562 74.3438 111.906 75.4896 112.219 76.5938C112.531 77.6979 112.812 78.6771 113.062 79.5312C113.312 80.3854 113.49 80.9792 113.594 81.3125C114.281 78.6458 114.969 76 115.656 73.375C116.365 70.75 116.969 68.0833 117.469 65.375C117.51 65.125 117.552 64.8542 117.594 64.5625C117.656 64.25 117.729 63.9688 117.812 63.7188C117.917 63.4688 118.062 63.2604 118.25 63.0938C118.438 62.9062 118.698 62.8125 119.031 62.8125C119.302 62.8125 119.635 62.875 120.031 63C120.448 63.125 120.844 63.3021 121.219 63.5312C121.594 63.7396 121.917 63.9896 122.188 64.2812C122.458 64.5521 122.594 64.8542 122.594 65.1875ZM144.969 86C144.969 86.875 144.948 87.8958 144.906 89.0625C144.885 90.2083 144.812 91.4375 144.688 92.75C144.583 94.0625 144.417 95.4062 144.188 96.7812C143.979 98.1562 143.698 99.5 143.344 100.812C142.99 102.125 142.552 103.365 142.031 104.531C141.51 105.698 140.885 106.719 140.156 107.594C139.427 108.469 138.583 109.167 137.625 109.688C136.667 110.188 135.573 110.438 134.344 110.438C133.115 110.438 132 110.156 131 109.594C130 109.01 129.156 108.25 128.469 107.312C127.906 106.562 127.406 105.646 126.969 104.562C126.552 103.458 126.177 102.26 125.844 100.969C125.531 99.6771 125.26 98.3333 125.031 96.9375C124.802 95.5417 124.615 94.1667 124.469 92.8125C124.344 91.4583 124.25 90.1771 124.188 88.9688C124.125 87.7396 124.094 86.6667 124.094 85.75C124.094 84.2083 124.156 82.5938 124.281 80.9062C124.427 79.2188 124.688 77.5521 125.062 75.9062C125.438 74.2396 125.948 72.6354 126.594 71.0938C127.24 69.5521 128.073 68.1667 129.094 66.9375C129.198 66.8125 129.323 66.6667 129.469 66.5C129.635 66.3333 129.812 66.1771 130 66.0312C130.188 65.8646 130.375 65.7292 130.562 65.625C130.771 65.5 130.969 65.4375 131.156 65.4375C131.344 65.4375 131.521 65.4896 131.688 65.5938C131.875 65.6979 132.031 65.8333 132.156 66C132.594 65.75 133.052 65.5729 133.531 65.4688C134.031 65.3646 134.531 65.3125 135.031 65.3125C136.552 65.3125 137.854 65.6771 138.938 66.4062C140.042 67.1146 140.958 68.0521 141.688 69.2188C142.417 70.3854 143 71.7083 143.438 73.1875C143.875 74.6667 144.208 76.1771 144.438 77.7188C144.667 79.2604 144.812 80.75 144.875 82.1875C144.938 83.625 144.969 84.8958 144.969 86ZM140.094 87.375C140.094 86.8333 140.073 86.0104 140.031 84.9062C140.01 83.7812 139.938 82.5521 139.812 81.2188C139.688 79.8646 139.51 78.4792 139.281 77.0625C139.073 75.6458 138.781 74.3646 138.406 73.2188C138.031 72.0521 137.562 71.1042 137 70.375C136.458 69.625 135.802 69.25 135.031 69.25C134.719 69.25 134.438 69.3958 134.188 69.6875C133.938 69.9792 133.698 70.3542 133.469 70.8125C133.24 71.2708 133.031 71.7708 132.844 72.3125C132.656 72.8542 132.469 73.375 132.281 73.875C132.094 74.375 131.917 74.8229 131.75 75.2188C131.583 75.6146 131.406 75.8958 131.219 76.0625C131.156 76.125 131.052 76.1667 130.906 76.1875C130.781 76.1875 130.656 76.1875 130.531 76.1875C130.177 76.1875 129.844 76.125 129.531 76C129.177 77.4167 128.927 78.8333 128.781 80.25C128.656 81.6458 128.594 83.0625 128.594 84.5C128.594 84.9375 128.615 85.5938 128.656 86.4688C128.698 87.3438 128.76 88.3438 128.844 89.4688C128.927 90.5938 129.042 91.8021 129.188 93.0938C129.333 94.3854 129.51 95.6771 129.719 96.9688C129.927 98.2396 130.167 99.4688 130.438 100.656C130.729 101.823 131.062 102.865 131.438 103.781C131.812 104.677 132.229 105.396 132.688 105.938C133.146 106.479 133.656 106.75 134.219 106.75C134.531 106.75 134.812 106.667 135.062 106.5C135.312 106.312 135.552 106.125 135.781 105.938C136.406 105.375 136.948 104.635 137.406 103.719C137.865 102.802 138.25 101.792 138.562 100.688C138.875 99.5833 139.135 98.4271 139.344 97.2188C139.552 95.9896 139.708 94.7812 139.812 93.5938C139.917 92.4062 139.99 91.2812 140.031 90.2188C140.073 89.1354 140.094 88.1875 140.094 87.375ZM170.906 90.8125C170.906 91.9375 170.865 93.1979 170.781 94.5938C170.719 95.9896 170.573 97.4167 170.344 98.875C170.115 100.333 169.781 101.76 169.344 103.156C168.906 104.531 168.312 105.76 167.562 106.844C166.812 107.927 165.885 108.802 164.781 109.469C163.698 110.115 162.385 110.438 160.844 110.438C159.99 110.438 159.156 110.312 158.344 110.062C157.531 109.812 156.781 109.438 156.094 108.938C155.01 108.146 154.094 107.01 153.344 105.531C152.615 104.031 152.01 102.354 151.531 100.5C151.052 98.625 150.688 96.6458 150.438 94.5625C150.188 92.4583 150 90.3958 149.875 88.375C149.771 86.3542 149.708 84.4479 149.688 82.6562C149.667 80.8646 149.656 79.3333 149.656 78.0625C149.656 77.7292 149.656 77.25 149.656 76.625C149.656 76 149.656 75.3125 149.656 74.5625C149.677 73.7917 149.698 73 149.719 72.1875C149.74 71.375 149.771 70.6042 149.812 69.875C149.854 69.125 149.906 68.4688 149.969 67.9062C150.031 67.3438 150.115 66.9375 150.219 66.6875C150.323 66.4375 150.438 66.2604 150.562 66.1562C150.708 66.0521 150.927 66 151.219 66C152.156 66 152.896 66.2917 153.438 66.875C154 67.4375 154.281 68.1875 154.281 69.125C154.281 70.5 154.25 71.875 154.188 73.25C154.125 74.625 154.094 76 154.094 77.375C154.094 77.9792 154.094 78.8646 154.094 80.0312C154.115 81.1979 154.156 82.5312 154.219 84.0312C154.281 85.5104 154.375 87.1042 154.5 88.8125C154.625 90.5208 154.792 92.2188 155 93.9062C155.229 95.5729 155.51 97.1875 155.844 98.75C156.177 100.292 156.573 101.656 157.031 102.844C157.51 104.031 158.062 104.979 158.688 105.688C159.312 106.396 160.031 106.75 160.844 106.75C161.615 106.75 162.281 106.448 162.844 105.844C163.427 105.24 163.906 104.469 164.281 103.531C164.677 102.573 164.99 101.51 165.219 100.344C165.469 99.1771 165.656 98.0312 165.781 96.9062C165.906 95.7604 165.99 94.7083 166.031 93.75C166.073 92.7708 166.094 92 166.094 91.4375C166.094 90.2917 166.062 89.0208 166 87.625C165.958 86.2083 165.885 84.7396 165.781 83.2188C165.698 81.6979 165.573 80.1458 165.406 78.5625C165.24 76.9792 165.042 75.4479 164.812 73.9688C164.583 72.4688 164.312 71.0417 164 69.6875C163.708 68.3333 163.365 67.125 162.969 66.0625C162.906 65.875 162.802 65.6354 162.656 65.3438C162.531 65.0521 162.469 64.8125 162.469 64.625C162.469 64.2917 162.542 64.0417 162.688 63.875C162.854 63.7083 163.052 63.5938 163.281 63.5312C163.51 63.4479 163.76 63.4062 164.031 63.4062C164.302 63.3854 164.552 63.375 164.781 63.375C165.281 63.375 165.688 63.3958 166 63.4375C166.333 63.4792 166.719 63.625 167.156 63.875C167.448 64.0417 167.719 64.5 167.969 65.25C168.24 66 168.49 66.9479 168.719 68.0938C168.948 69.2396 169.156 70.5417 169.344 72C169.552 73.4375 169.74 74.9271 169.906 76.4688C170.073 77.9896 170.219 79.5104 170.344 81.0312C170.469 82.5521 170.573 83.9583 170.656 85.25C170.74 86.5417 170.802 87.6771 170.844 88.6562C170.885 89.6354 170.906 90.3542 170.906 90.8125ZM190.781 76.375C190.781 78.0417 190.688 79.7292 190.5 81.4375C190.333 83.125 189.948 84.75 189.344 86.3125C188.969 87.2917 188.469 88.3125 187.844 89.375C187.24 90.4167 186.646 91.4792 186.062 92.5625C185.479 93.6458 184.969 94.7292 184.531 95.8125C184.115 96.875 183.906 97.9167 183.906 98.9375C183.906 99.1875 183.917 99.4271 183.938 99.6562C183.958 99.8854 183.969 100.125 183.969 100.375C183.969 100.917 183.865 101.365 183.656 101.719C183.448 102.073 183.031 102.25 182.406 102.25C182.052 102.25 181.625 102.188 181.125 102.062C180.625 101.938 180.219 101.792 179.906 101.625C179.406 101.375 179.083 101.083 178.938 100.75C178.792 100.396 178.719 99.9375 178.719 99.375C178.719 98.2917 178.875 97.25 179.188 96.25C179.5 95.2292 179.896 94.25 180.375 93.3125C180.854 92.3542 181.375 91.4167 181.938 90.5C182.5 89.5833 183.031 88.6667 183.531 87.75C184.51 85.9167 185.177 83.9896 185.531 81.9688C185.906 79.9479 186.094 77.8958 186.094 75.8125C186.094 75.3958 186.062 74.8958 186 74.3125C185.958 73.7292 185.875 73.125 185.75 72.5C185.625 71.875 185.458 71.25 185.25 70.625C185.062 70 184.812 69.4479 184.5 68.9688C184.188 68.4688 183.812 68.0729 183.375 67.7812C182.958 67.4688 182.469 67.3125 181.906 67.3125C181.219 67.3125 180.656 67.5312 180.219 67.9688C179.781 68.4062 179.438 68.9375 179.188 69.5625C178.938 70.1875 178.76 70.8542 178.656 71.5625C178.573 72.25 178.531 72.8542 178.531 73.375C178.531 73.9583 178.625 74.5625 178.812 75.1875C179 75.7917 179.208 76.3542 179.438 76.875C179.667 77.3958 179.875 77.8438 180.062 78.2188C180.25 78.5729 180.344 78.7917 180.344 78.875C180.344 79.0833 180.25 79.25 180.062 79.375C179.896 79.5 179.688 79.6042 179.438 79.6875C179.188 79.75 178.938 79.8021 178.688 79.8438C178.438 79.8646 178.24 79.875 178.094 79.875C177.302 79.875 176.646 79.6354 176.125 79.1562C175.625 78.6771 175.229 78.0938 174.938 77.4062C174.646 76.6979 174.438 75.9479 174.312 75.1562C174.208 74.3646 174.156 73.6667 174.156 73.0625C174.156 71.8958 174.302 70.75 174.594 69.625C174.885 68.5 175.344 67.5 175.969 66.625C176.594 65.75 177.375 65.0417 178.312 64.5C179.271 63.9583 180.406 63.6875 181.719 63.6875C183.531 63.6875 185.021 64.0729 186.188 64.8438C187.354 65.5938 188.281 66.5729 188.969 67.7812C189.656 68.9896 190.125 70.3542 190.375 71.875C190.646 73.375 190.781 74.875 190.781 76.375ZM179.469 106.625C179.469 106.417 179.542 106.26 179.688 106.156C179.833 106.031 180.01 105.948 180.219 105.906C180.448 105.844 180.667 105.812 180.875 105.812C181.104 105.812 181.302 105.812 181.469 105.812C181.677 105.812 181.917 105.823 182.188 105.844C182.479 105.844 182.75 105.885 183 105.969C183.25 106.031 183.458 106.146 183.625 106.312C183.812 106.458 183.906 106.667 183.906 106.938C183.906 107.042 183.896 107.271 183.875 107.625C183.875 107.958 183.865 108.323 183.844 108.719C183.844 109.115 183.823 109.479 183.781 109.812C183.76 110.125 183.74 110.292 183.719 110.312C183.594 110.542 183.396 110.667 183.125 110.688C182.854 110.729 182.594 110.75 182.344 110.75C181.719 110.75 181.25 110.719 180.938 110.656C180.625 110.594 180.396 110.469 180.25 110.281C180.125 110.094 180.031 109.833 179.969 109.5C179.927 109.167 179.865 108.729 179.781 108.188C179.74 107.938 179.677 107.688 179.594 107.438C179.51 107.188 179.469 106.917 179.469 106.625Z" fill="#3350E3"/>
</svg>
