<svg width="314" height="133" viewBox="0 0 314 133" fill="none" xmlns="http://www.w3.org/2000/svg">
<path d="M16.6875 77.75C16.7708 80.125 16.7917 82.5417 16.75 85C16.7083 87.4583 16.5625 89.9167 16.3125 92.375C16.2292 93.0833 16.0208 93.6042 15.6875 93.9375C15.3542 94.3125 14.8125 94.5 14.0625 94.5C13.4792 94.5 12.8333 94.4375 12.125 94.3125C11.4167 94.1875 10.7292 93.9792 10.0625 93.6875C9.4375 93.3958 8.89583 93 8.4375 92.5C8.02083 92.0417 7.8125 91.4583 7.8125 90.75C7.8125 90.25 7.83333 89.7708 7.875 89.3125C7.91667 88.8958 7.97917 88.4583 8.0625 88C8.3125 86.25 8.52083 84.4792 8.6875 82.6875C8.89583 80.8958 9.10417 79.125 9.3125 77.375C6.47917 76.75 4.33333 75.4167 2.875 73.375C1.41667 71.2917 0.6875 68.8333 0.6875 66C0.6875 65.4583 0.708333 64.7292 0.75 63.8125C0.833333 62.8542 0.979167 61.9167 1.1875 61C1.39583 60.0833 1.70833 59.2917 2.125 58.625C2.58333 57.9583 3.1875 57.625 3.9375 57.625C4.5625 57.625 5.27083 57.8333 6.0625 58.25C6.89583 58.625 7.5625 59 8.0625 59.375C8.6875 59.75 9.125 60.1875 9.375 60.6875C9.66667 61.1458 9.8125 61.75 9.8125 62.5C9.8125 63.3333 9.70833 64.1458 9.5 64.9375C9.29167 65.7292 9.1875 66.5417 9.1875 67.375C9.1875 68.375 9.47917 69.25 10.0625 70C10.6458 70.75 11.4792 71.125 12.5625 71.125C13.3125 71.125 14.0208 70.9792 14.6875 70.6875C15.3958 70.3542 16 69.9167 16.5 69.375C17 68.8333 17.3958 68.2292 17.6875 67.5625C18.0208 66.8542 18.1875 66.125 18.1875 65.375C18.1875 64.7917 18.1042 64.2292 17.9375 63.6875C17.8125 63.1458 17.6458 62.625 17.4375 62.125C15.5625 57.7083 13.5208 53.3958 11.3125 49.1875C9.14583 44.9375 6.89583 40.7083 4.5625 36.5C3.6875 34.7917 2.83333 33.0208 2 31.1875C1.20833 29.3542 0.8125 27.4583 0.8125 25.5C0.8125 24.1667 1.04167 22.9167 1.5 21.75C1.95833 20.5417 2.58333 19.4583 3.375 18.5C4.16667 17.5 5.08333 16.6458 6.125 15.9375C7.20833 15.2292 8.35417 14.6667 9.5625 14.25C9.3125 12.4167 9.0625 10.5625 8.8125 8.6875C8.5625 6.8125 8.4375 5 8.4375 3.25C8.4375 2.16667 8.64583 1.45833 9.0625 1.125C9.47917 0.791667 10.1875 0.625 11.1875 0.625C11.5625 0.625 12.0417 0.6875 12.625 0.8125C13.25 0.895833 13.875 1.04167 14.5 1.25C15.125 1.41667 15.6667 1.64583 16.125 1.9375C16.625 2.22917 16.9375 2.58333 17.0625 3C17.1875 3.25 17.25 3.5 17.25 3.75C17.2917 4 17.3125 4.25 17.3125 4.5C17.3125 5 17.2917 5.47917 17.25 5.9375C17.2083 6.39583 17.1458 6.875 17.0625 7.375V14C18.0208 14.2917 18.9583 14.7083 19.875 15.25C20.7917 15.75 21.5833 16.375 22.25 17.125C22.9583 17.8333 23.5208 18.6667 23.9375 19.625C24.3542 20.5417 24.5625 21.5417 24.5625 22.625C24.5625 23.9583 23.8958 24.625 22.5625 24.625C21.2292 24.625 20.1875 24.375 19.4375 23.875C18.7292 23.3333 18.0833 22.75 17.5 22.125C16.9583 21.5 16.3958 20.9375 15.8125 20.4375C15.2708 19.8958 14.5208 19.625 13.5625 19.625C12.8125 19.625 12.125 19.7917 11.5 20.125C10.875 20.4583 10.3333 20.9167 9.875 21.5C9.41667 22.0417 9.0625 22.6667 8.8125 23.375C8.5625 24.0417 8.4375 24.7083 8.4375 25.375C8.4375 26.9583 8.83333 28.5 9.625 30C10.4167 31.5 11.1875 32.9167 11.9375 34.25C13.5208 37.0833 15.0208 39.9167 16.4375 42.75C17.8958 45.5417 19.3542 48.375 20.8125 51.25C21.3542 52.3333 21.9375 53.4583 22.5625 54.625C23.2292 55.7917 23.8333 56.9792 24.375 58.1875C24.9583 59.3542 25.4167 60.5625 25.75 61.8125C26.125 63.0208 26.3125 64.25 26.3125 65.5C26.3125 66.9583 26.0417 68.3125 25.5 69.5625C25 70.8125 24.3125 71.9375 23.4375 72.9375C22.5625 73.9375 21.5417 74.7917 20.375 75.5C19.2083 76.2083 17.9792 76.75 16.6875 77.125V77.75ZM41.25 84.6875C41.25 85.6458 40.9583 86.2708 40.375 86.5625C39.8333 86.8542 39.1667 87 38.375 87C37.6667 87 36.9583 86.9375 36.25 86.8125C35.5833 86.7292 34.9375 86.5417 34.3125 86.25C33.7292 85.9583 33.2083 85.5625 32.75 85.0625C32.3333 84.5625 32.0417 83.9167 31.875 83.125C31.2917 80.625 30.9583 78.1875 30.875 75.8125C30.7917 73.3958 30.75 70.9167 30.75 68.375V60.6875C30.75 57.1875 30.8958 53.5625 31.1875 49.8125C31.4792 46.0208 31.7917 42.375 32.125 38.875C32.125 38.75 32.1458 38.6042 32.1875 38.4375C32.2292 38.2708 32.25 38.1458 32.25 38.0625C32.2917 37.6042 32.3542 37.1042 32.4375 36.5625C32.5208 36.0208 32.6458 35.5417 32.8125 35.125C33.0208 34.6667 33.2917 34.2917 33.625 34C34 33.7083 34.4792 33.5625 35.0625 33.5625C35.7292 33.5625 36.3542 33.7083 36.9375 34C37.5625 34.25 38.1042 34.6042 38.5625 35.0625C39.0208 35.4792 39.375 36 39.625 36.625C39.9167 37.25 40.0625 37.8958 40.0625 38.5625C40.0625 39.3958 40.0208 40.2708 39.9375 41.1875C39.8958 42.0625 39.8333 42.9167 39.75 43.75C39.6667 44.3333 39.6042 44.7708 39.5625 45.0625C39.5625 45.3542 39.5417 45.8333 39.5 46.5C40 45.625 40.5625 44.75 41.1875 43.875C41.8542 42.9583 42.5833 42.1667 43.375 41.5C44.1667 40.7917 45.0208 40.2292 45.9375 39.8125C46.8958 39.3542 47.9167 39.125 49 39.125C50.0833 39.125 50.9792 39.3125 51.6875 39.6875C52.3958 40.0208 52.9583 40.5 53.375 41.125C53.7917 41.7083 54.0833 42.4167 54.25 43.25C54.4167 44.0833 54.5 44.9583 54.5 45.875C54.5 46.4583 54.4792 47.0208 54.4375 47.5625C54.4375 48.1042 54.4167 48.6458 54.375 49.1875C54.3333 49.7292 54.2917 50.2708 54.25 50.8125C54.25 51.3125 54.25 51.8542 54.25 52.4375C54.25 53.5208 54.2708 54.5625 54.3125 55.5625C54.3958 56.5208 54.4792 57.5417 54.5625 58.625C54.9792 57.25 55.4792 55.6875 56.0625 53.9375C56.6875 52.1875 57.3958 50.3958 58.1875 48.5625C59.0208 46.7292 59.9167 44.9375 60.875 43.1875C61.875 41.3958 62.9375 39.8125 64.0625 38.4375C65.2292 37.0625 66.4792 35.9583 67.8125 35.125C69.1458 34.25 70.5417 33.8125 72 33.8125C74.2917 33.8125 75.8958 34.4792 76.8125 35.8125C77.7708 37.1458 78.25 38.8542 78.25 40.9375C78.25 41.5208 78.2292 42.1458 78.1875 42.8125C78.1458 43.4375 78.0833 44.0417 78 44.625C77.7917 46.875 77.625 49.1875 77.5 51.5625C77.4167 53.9375 77.375 56.25 77.375 58.5V59.6875C77.375 62.6042 77.5 65.3542 77.75 67.9375C78 70.5208 78.5 73.25 79.25 76.125L79.75 77.8125C79.9167 78.3958 80.1042 79.0417 80.3125 79.75C80.5625 80.4583 80.7708 81.1458 80.9375 81.8125C81.1042 82.4792 81.25 83.1042 81.375 83.6875C81.5 84.2708 81.5625 84.7292 81.5625 85.0625C81.5625 85.9375 81.25 86.5208 80.625 86.8125C80 87.1042 79.3542 87.25 78.6875 87.25C78.2708 87.25 77.7917 87.2292 77.25 87.1875C76.7083 87.1875 76.1667 87.125 75.625 87C75.125 86.9167 74.625 86.7708 74.125 86.5625C73.6667 86.3542 73.2917 86.0833 73 85.75V85.8125C72.625 85.4375 72.3542 84.9792 72.1875 84.4375C72.0208 83.8958 71.8958 83.3542 71.8125 82.8125L71.6875 82.25C71.1042 80 70.6042 77.9792 70.1875 76.1875C69.8125 74.3958 69.5 72.6042 69.25 70.8125C69 69.0208 68.8125 67.1667 68.6875 65.25C68.6042 63.3333 68.5625 61.125 68.5625 58.625C68.5625 56.5 68.6458 54.3333 68.8125 52.125C69.0208 49.9167 69.2292 47.75 69.4375 45.625C69.4375 45.4167 69.4375 45.1875 69.4375 44.9375C69.4792 44.6458 69.5208 44.3958 69.5625 44.1875C67.9792 46.6458 66.5833 49.3542 65.375 52.3125C64.2083 55.2292 63.1458 58.2292 62.1875 61.3125C61.2708 64.3958 60.4583 67.5 59.75 70.625C59.0833 73.7083 58.4792 76.6458 57.9375 79.4375C57.9375 79.4792 58.0208 79.7292 58.1875 80.1875C58.3958 80.6042 58.5833 81.1042 58.75 81.6875C58.9583 82.2292 59.1458 82.7708 59.3125 83.3125C59.4792 83.8125 59.5625 84.1458 59.5625 84.3125C59.5625 85.2708 59.25 85.8542 58.625 86.0625C58 86.2708 57.3542 86.375 56.6875 86.375C56.1875 86.375 55.6458 86.3542 55.0625 86.3125C54.4792 86.2708 53.8958 86.1667 53.3125 86C52.7708 85.8333 52.25 85.6042 51.75 85.3125C51.2917 85.0625 50.9167 84.6875 50.625 84.1875C50.375 83.7708 50.0833 82.7917 49.75 81.25C49.4167 79.6667 49.0625 77.8333 48.6875 75.75C48.3125 73.625 47.9583 71.3542 47.625 68.9375C47.2917 66.5208 46.9792 64.2292 46.6875 62.0625C46.3958 59.8958 46.1667 58 46 56.375C45.8333 54.75 45.75 53.6458 45.75 53.0625V52.125C44.4167 55 43.3125 58.0833 42.4375 61.375C41.5625 64.6667 40.8958 67.8958 40.4375 71.0625L40.1875 72.1875C40.1042 72.5208 40.0417 72.8542 40 73.1875C39.9583 73.4792 39.9375 73.7708 39.9375 74.0625C39.9375 74.5208 39.9792 75.0833 40.0625 75.75C40.1875 76.4167 40.3333 77.1458 40.5 77.9375C40.7083 79.0208 40.875 80.1458 41 81.3125C41.1667 82.4375 41.25 83.5625 41.25 84.6875ZM112.75 59.375C112.75 63 112.438 66.625 111.812 70.25C111.229 73.8333 110 77.2292 108.125 80.4375C107.542 81.3958 106.875 82.3333 106.125 83.25C105.375 84.125 104.542 84.9167 103.625 85.625C102.75 86.375 101.771 86.9583 100.688 87.375C99.6458 87.8333 98.5417 88.0625 97.375 88.0625C95.5417 88.0625 93.9375 87.625 92.5625 86.75C91.2292 85.9167 90.0625 84.8125 89.0625 83.4375C88.1042 82.0208 87.2917 80.4375 86.625 78.6875C86 76.8958 85.5 75.0833 85.125 73.25C84.7917 71.375 84.5417 69.5625 84.375 67.8125C84.25 66.0625 84.1875 64.5208 84.1875 63.1875C84.1875 61.6875 84.25 60.0417 84.375 58.25C84.5 56.4583 84.7083 54.625 85 52.75C85.3333 50.875 85.75 49.0208 86.25 47.1875C86.7917 45.3542 87.4792 43.6458 88.3125 42.0625C89.1458 40.4375 90.1458 39 91.3125 37.75C92.4792 36.4583 93.8333 35.4375 95.375 34.6875V34.75C96.7083 34.0417 98.0417 33.6875 99.375 33.6875C100.208 33.6875 100.854 33.875 101.312 34.25C101.771 34.5833 101.979 35.1667 101.938 36C104.229 36.4167 106.083 37.5208 107.5 39.3125C108.917 41.1042 110 43.1875 110.75 45.5625C111.542 47.9375 112.062 50.375 112.312 52.875C112.604 55.375 112.75 57.5417 112.75 59.375ZM98.625 43.75C97.9167 43.75 97.25 43.4792 96.625 42.9375C95.8333 44.1458 95.1667 45.5417 94.625 47.125C94.0833 48.6667 93.6458 50.2708 93.3125 51.9375C93.0208 53.5625 92.8125 55.2083 92.6875 56.875C92.5625 58.5417 92.5 60.1042 92.5 61.5625C92.5 62.7708 92.5625 64.3333 92.6875 66.25C92.8125 68.125 93.0417 70.0208 93.375 71.9375C93.75 73.8542 94.25 75.6458 94.875 77.3125C95.5417 78.9792 96.3958 80.2083 97.4375 81C98.7292 80.25 99.7917 79.0625 100.625 77.4375C101.5 75.7708 102.188 73.9583 102.688 72C103.188 70.0417 103.521 68.0625 103.688 66.0625C103.896 64.0625 104 62.3542 104 60.9375C104 59.8958 103.938 58.5417 103.812 56.875C103.688 55.2083 103.479 53.5208 103.188 51.8125C102.896 50.0625 102.479 48.4375 101.938 46.9375C101.438 45.4375 100.792 44.3125 100 43.5625C99.625 43.6875 99.1667 43.75 98.625 43.75ZM127.625 84.6875C127.625 85.6458 127.333 86.2708 126.75 86.5625C126.208 86.8542 125.542 87 124.75 87C124.042 87 123.333 86.9375 122.625 86.8125C121.958 86.7292 121.312 86.5417 120.688 86.25C120.104 85.9583 119.583 85.5625 119.125 85.0625C118.708 84.5625 118.417 83.9167 118.25 83.125C117.667 80.625 117.333 78.1875 117.25 75.8125C117.167 73.3958 117.125 70.9167 117.125 68.375V60.6875C117.125 57.1875 117.271 53.5625 117.562 49.8125C117.854 46.0208 118.167 42.375 118.5 38.875C118.5 38.75 118.521 38.6042 118.562 38.4375C118.604 38.2708 118.625 38.1458 118.625 38.0625C118.667 37.6042 118.729 37.1042 118.812 36.5625C118.896 36.0208 119.021 35.5417 119.188 35.125C119.396 34.6667 119.667 34.2917 120 34C120.375 33.7083 120.854 33.5625 121.438 33.5625C122.104 33.5625 122.729 33.7083 123.312 34C123.938 34.25 124.479 34.6042 124.938 35.0625C125.396 35.4792 125.75 36 126 36.625C126.292 37.25 126.438 37.8958 126.438 38.5625C126.438 39.2708 126.417 40.0625 126.375 40.9375C126.333 41.7708 126.271 42.5625 126.188 43.3125C126.188 43.5208 126.167 43.75 126.125 44C126.125 44.25 126.104 44.4792 126.062 44.6875C126.646 43.5208 127.312 42.3125 128.062 41.0625C128.812 39.7708 129.667 38.6042 130.625 37.5625C131.625 36.4792 132.708 35.6042 133.875 34.9375C135.083 34.2708 136.417 33.9375 137.875 33.9375C139.083 33.9375 140.083 34.125 140.875 34.5C141.667 34.875 142.292 35.4167 142.75 36.125C143.25 36.7917 143.583 37.5833 143.75 38.5C143.958 39.4167 144.062 40.3958 144.062 41.4375C144.062 42.8542 144.021 44.2917 143.938 45.75C143.854 47.1667 143.771 48.5833 143.688 50C143.562 51.4583 143.458 52.8958 143.375 54.3125C143.292 55.7292 143.25 57.1667 143.25 58.625C143.25 60.375 143.292 62.1875 143.375 64.0625C143.458 65.8958 143.583 67.6667 143.75 69.375C143.917 71.0417 144.104 72.5625 144.312 73.9375C144.521 75.2708 144.729 76.3125 144.938 77.0625C145.104 77.6875 145.271 78.4167 145.438 79.25C145.646 80.0417 145.833 80.875 146 81.75C146.208 82.5833 146.375 83.3958 146.5 84.1875C146.625 84.9792 146.688 85.6875 146.688 86.3125C146.688 87.2292 146.312 87.8125 145.562 88.0625C144.854 88.3125 144.146 88.4375 143.438 88.4375C142.729 88.4375 141.917 88.375 141 88.25C140.125 88.1667 139.333 87.9375 138.625 87.5625C137.75 86.9375 137.167 86.0625 136.875 84.9375C136.625 83.8125 136.458 82.7083 136.375 81.625L136.188 79.9375C136.062 78.9375 135.896 77.625 135.688 76C135.479 74.375 135.271 72.5833 135.062 70.625C134.896 68.6667 134.75 66.6458 134.625 64.5625C134.5 62.4375 134.438 60.375 134.438 58.375C134.438 56.5833 134.5 54.8542 134.625 53.1875C134.792 51.5208 134.958 49.8333 135.125 48.125C135.208 47.25 135.271 46.5417 135.312 46C135.354 45.4583 135.417 44.75 135.5 43.875C134.667 45.2083 133.833 46.7708 133 48.5625C132.167 50.3542 131.375 52.2292 130.625 54.1875C129.875 56.1042 129.188 57.9792 128.562 59.8125C127.979 61.6458 127.521 63.25 127.188 64.625L126.812 66C126.604 66.6667 126.417 67.3333 126.25 68C126.125 68.6667 126.062 69.2917 126.062 69.875C126.062 70.625 126.104 71.5 126.188 72.5C126.271 73.4583 126.375 74.375 126.5 75.25C126.625 76.2917 126.771 77.3542 126.938 78.4375C126.938 78.5208 126.979 78.7917 127.062 79.25C127.146 79.7083 127.229 80.25 127.312 80.875C127.396 81.5 127.458 82.1667 127.5 82.875C127.583 83.5417 127.625 84.1458 127.625 84.6875ZM183.25 69.5C183.25 69.9167 183.125 70.4167 182.875 71C182.667 71.5417 182.375 72.125 182 72.75C181.667 73.3333 181.292 73.9375 180.875 74.5625C180.458 75.1875 180.062 75.75 179.688 76.25L178.75 77.5625L177.812 79.1875L177 80.6875C177.042 81.5208 177.104 82.4167 177.188 83.375C177.271 84.3333 177.354 85.25 177.438 86.125C177.896 90.4167 178.292 94.7917 178.625 99.25C179 103.708 179.188 108.083 179.188 112.375C179.188 114.667 179 116.979 178.625 119.312C178.25 121.688 177.542 123.812 176.5 125.688C175.5 127.604 174.104 129.167 172.312 130.375C170.521 131.583 168.229 132.188 165.438 132.188C163.521 132.188 161.896 131.833 160.562 131.125C159.229 130.417 158.146 129.458 157.312 128.25C156.521 127.083 155.938 125.708 155.562 124.125C155.188 122.542 155 120.896 155 119.188C155 115.812 155.396 112.396 156.188 108.938C156.979 105.479 158 102.062 159.25 98.6875C160.542 95.3125 162 92 163.625 88.75C165.25 85.5417 166.896 82.4583 168.562 79.5C168.562 79.4167 168.562 79.3333 168.562 79.25C168.562 79.125 168.542 78.9375 168.5 78.6875C167.958 79.6875 167.333 80.7292 166.625 81.8125C165.958 82.8542 165.188 83.7917 164.312 84.625C163.479 85.4583 162.542 86.1458 161.5 86.6875C160.5 87.2292 159.375 87.5 158.125 87.5C156.375 87.5 154.917 87.0833 153.75 86.25C152.583 85.4167 151.646 84.3542 150.938 83.0625C150.271 81.7708 149.792 80.3542 149.5 78.8125C149.208 77.2708 149.062 75.8125 149.062 74.4375C149.062 72.8542 149.146 71.2917 149.312 69.75C149.521 68.2083 149.75 66.7083 150 65.25C150.417 62.9167 150.938 60.3958 151.562 57.6875C152.229 54.9375 153.042 52.2292 154 49.5625C154.958 46.8542 156.062 44.3125 157.312 41.9375C158.604 39.5625 160.104 37.5417 161.812 35.875L162.312 35.4375C162.854 34.8958 163.479 34.375 164.188 33.875C164.896 33.3333 165.625 33.0625 166.375 33.0625C166.833 33.0625 167.229 33.1875 167.562 33.4375C167.938 33.6875 168.25 34.0208 168.5 34.4375C168.75 34.8125 168.938 35.2292 169.062 35.6875C169.229 36.1458 169.312 36.5833 169.312 37C169.312 37.5 169.125 38.0417 168.75 38.625H168.875C171.417 38.625 173.125 39.7917 174 42.125C174.458 42.5417 174.792 43.0417 175 43.625C175.25 44.2083 175.375 44.8333 175.375 45.5C175.375 45.8333 175.354 46.2083 175.312 46.625C175.271 47 175.208 47.3542 175.125 47.6875C175.042 48.0625 174.979 48.4167 174.938 48.75C174.896 49.0833 174.875 49.3958 174.875 49.6875C174.875 50.6458 174.896 51.8333 174.938 53.25C174.979 54.6667 175.042 56.1458 175.125 57.6875C175.208 59.2292 175.292 60.75 175.375 62.25C175.5 63.7083 175.604 64.9792 175.688 66.0625C175.979 65.6875 176.312 65.3542 176.688 65.0625C177.104 64.7708 177.583 64.625 178.125 64.625C178.583 64.625 179.104 64.7917 179.688 65.125C180.312 65.4583 180.875 65.875 181.375 66.375C181.917 66.875 182.354 67.4167 182.688 68C183.062 68.5417 183.25 69.0417 183.25 69.5ZM166.062 43.75C166.062 43.5 166.062 43.2292 166.062 42.9375C166.104 42.6458 166.167 42.3333 166.25 42L165.812 42.5625C165.479 42.9375 165.167 43.2917 164.875 43.625C164.583 43.9583 164.312 44.3125 164.062 44.6875C162.979 46.2708 162.021 48.3333 161.188 50.875C160.396 53.375 159.729 56.0208 159.188 58.8125C158.646 61.5625 158.229 64.2708 157.938 66.9375C157.688 69.6042 157.562 71.8958 157.562 73.8125C157.562 74.7708 157.583 75.7292 157.625 76.6875C157.667 77.6458 157.875 78.5833 158.25 79.5C158.833 78.875 159.312 78.2083 159.688 77.5C160.062 76.75 160.417 75.9792 160.75 75.1875C161.667 73.1458 162.458 70.7708 163.125 68.0625C163.792 65.3542 164.333 62.5625 164.75 59.6875C165.167 56.8125 165.479 54 165.688 51.25C165.896 48.4583 166.021 45.9583 166.062 43.75ZM170.812 110.5C170.812 107.667 170.75 105 170.625 102.5C170.5 100.042 170.312 97.3958 170.062 94.5625C169.312 96.3542 168.542 98.2708 167.75 100.312C167 102.396 166.333 104.479 165.75 106.562C165.167 108.688 164.688 110.792 164.312 112.875C163.938 114.958 163.75 116.938 163.75 118.812V119.25C163.75 120.208 163.812 121.229 163.938 122.312C164.062 123.438 164.458 124.354 165.125 125.062H165.812C166.646 125.062 167.333 124.771 167.875 124.188C168.458 123.646 168.938 122.938 169.312 122.062C169.688 121.188 169.979 120.208 170.188 119.125C170.396 118.042 170.542 116.958 170.625 115.875C170.708 114.792 170.75 113.771 170.75 112.812C170.792 111.854 170.812 111.083 170.812 110.5ZM192.875 32.4375C192.875 33.1458 192.708 33.6667 192.375 34C192.083 34.2917 191.521 34.4375 190.688 34.4375C190.312 34.4375 189.729 34.3958 188.938 34.3125C188.146 34.1875 187.333 34.0208 186.5 33.8125C185.708 33.6042 185 33.3125 184.375 32.9375C183.792 32.5625 183.5 32.1042 183.5 31.5625C183.5 31.3958 183.562 30.9375 183.688 30.1875C183.812 29.3958 183.958 28.5625 184.125 27.6875C184.333 26.8125 184.5 26.0208 184.625 25.3125C184.792 24.6042 184.917 24.2083 185 24.125V24.1875C185.208 23.8542 185.458 23.6458 185.75 23.5625C186.042 23.4792 186.333 23.4375 186.625 23.4375C187 23.4375 187.479 23.5 188.062 23.625C188.688 23.7083 189.292 23.8542 189.875 24.0625C190.5 24.2292 191.062 24.4583 191.562 24.75C192.062 25.0417 192.375 25.3542 192.5 25.6875C192.625 26.0208 192.688 26.4792 192.688 27.0625C192.729 27.6042 192.729 28.1042 192.688 28.5625C192.688 28.7292 192.667 28.9375 192.625 29.1875C192.625 29.3958 192.625 29.5625 192.625 29.6875C192.625 29.8958 192.625 30.1042 192.625 30.3125C192.667 30.5208 192.708 30.7292 192.75 30.9375C192.792 31.1458 192.812 31.375 192.812 31.625C192.854 31.875 192.875 32.1458 192.875 32.4375ZM195.188 82.25C195.188 83.2083 194.958 83.8958 194.5 84.3125C194.083 84.6875 193.396 84.875 192.438 84.875C191.938 84.875 191.375 84.8125 190.75 84.6875C190.167 84.5625 189.583 84.3958 189 84.1875C188.417 83.9375 187.875 83.6458 187.375 83.3125C186.875 82.9792 186.5 82.6042 186.25 82.1875C186.083 81.9375 185.938 81.1667 185.812 79.875C185.688 78.5833 185.583 76.9792 185.5 75.0625C185.458 73.1458 185.396 71 185.312 68.625C185.271 66.25 185.229 63.8542 185.188 61.4375C185.188 59.0208 185.188 56.6667 185.188 54.375C185.188 52.0833 185.188 50.0833 185.188 48.375V43.5625C185.188 43.1458 185.188 42.7292 185.188 42.3125C185.229 41.8958 185.312 41.5417 185.438 41.25C185.604 40.9167 185.833 40.6458 186.125 40.4375C186.458 40.2292 186.917 40.125 187.5 40.125C189.333 40.125 190.667 40.6458 191.5 41.6875C192.375 42.6875 192.917 44.0417 193.125 45.75C193.333 48.2917 193.479 50.8333 193.562 53.375C193.688 55.875 193.792 58.4167 193.875 61C193.958 63.3333 194.021 65.6458 194.062 67.9375C194.146 70.1875 194.292 72.4375 194.5 74.6875C194.542 75.1458 194.583 75.5833 194.625 76C194.667 76.4167 194.729 76.8333 194.812 77.25C194.896 78.0833 194.979 78.9167 195.062 79.75C195.146 80.5417 195.188 81.375 195.188 82.25ZM211.125 84.6875C211.125 85.6458 210.833 86.2708 210.25 86.5625C209.708 86.8542 209.042 87 208.25 87C207.542 87 206.833 86.9375 206.125 86.8125C205.458 86.7292 204.812 86.5417 204.188 86.25C203.604 85.9583 203.083 85.5625 202.625 85.0625C202.208 84.5625 201.917 83.9167 201.75 83.125C201.167 80.625 200.833 78.1875 200.75 75.8125C200.667 73.3958 200.625 70.9167 200.625 68.375V60.6875C200.625 57.1875 200.771 53.5625 201.062 49.8125C201.354 46.0208 201.667 42.375 202 38.875C202 38.75 202.021 38.6042 202.062 38.4375C202.104 38.2708 202.125 38.1458 202.125 38.0625C202.167 37.6042 202.229 37.1042 202.312 36.5625C202.396 36.0208 202.521 35.5417 202.688 35.125C202.896 34.6667 203.167 34.2917 203.5 34C203.875 33.7083 204.354 33.5625 204.938 33.5625C205.604 33.5625 206.229 33.7083 206.812 34C207.438 34.25 207.979 34.6042 208.438 35.0625C208.896 35.4792 209.25 36 209.5 36.625C209.792 37.25 209.938 37.8958 209.938 38.5625C209.938 39.2708 209.917 40.0625 209.875 40.9375C209.833 41.7708 209.771 42.5625 209.688 43.3125C209.688 43.5208 209.667 43.75 209.625 44C209.625 44.25 209.604 44.4792 209.562 44.6875C210.146 43.5208 210.812 42.3125 211.562 41.0625C212.312 39.7708 213.167 38.6042 214.125 37.5625C215.125 36.4792 216.208 35.6042 217.375 34.9375C218.583 34.2708 219.917 33.9375 221.375 33.9375C222.583 33.9375 223.583 34.125 224.375 34.5C225.167 34.875 225.792 35.4167 226.25 36.125C226.75 36.7917 227.083 37.5833 227.25 38.5C227.458 39.4167 227.562 40.3958 227.562 41.4375C227.562 42.8542 227.521 44.2917 227.438 45.75C227.354 47.1667 227.271 48.5833 227.188 50C227.062 51.4583 226.958 52.8958 226.875 54.3125C226.792 55.7292 226.75 57.1667 226.75 58.625C226.75 60.375 226.792 62.1875 226.875 64.0625C226.958 65.8958 227.083 67.6667 227.25 69.375C227.417 71.0417 227.604 72.5625 227.812 73.9375C228.021 75.2708 228.229 76.3125 228.438 77.0625C228.604 77.6875 228.771 78.4167 228.938 79.25C229.146 80.0417 229.333 80.875 229.5 81.75C229.708 82.5833 229.875 83.3958 230 84.1875C230.125 84.9792 230.188 85.6875 230.188 86.3125C230.188 87.2292 229.812 87.8125 229.062 88.0625C228.354 88.3125 227.646 88.4375 226.938 88.4375C226.229 88.4375 225.417 88.375 224.5 88.25C223.625 88.1667 222.833 87.9375 222.125 87.5625C221.25 86.9375 220.667 86.0625 220.375 84.9375C220.125 83.8125 219.958 82.7083 219.875 81.625L219.688 79.9375C219.562 78.9375 219.396 77.625 219.188 76C218.979 74.375 218.771 72.5833 218.562 70.625C218.396 68.6667 218.25 66.6458 218.125 64.5625C218 62.4375 217.938 60.375 217.938 58.375C217.938 56.5833 218 54.8542 218.125 53.1875C218.292 51.5208 218.458 49.8333 218.625 48.125C218.708 47.25 218.771 46.5417 218.812 46C218.854 45.4583 218.917 44.75 219 43.875C218.167 45.2083 217.333 46.7708 216.5 48.5625C215.667 50.3542 214.875 52.2292 214.125 54.1875C213.375 56.1042 212.688 57.9792 212.062 59.8125C211.479 61.6458 211.021 63.25 210.688 64.625L210.312 66C210.104 66.6667 209.917 67.3333 209.75 68C209.625 68.6667 209.562 69.2917 209.562 69.875C209.562 70.625 209.604 71.5 209.688 72.5C209.771 73.4583 209.875 74.375 210 75.25C210.125 76.2917 210.271 77.3542 210.438 78.4375C210.438 78.5208 210.479 78.7917 210.562 79.25C210.646 79.7083 210.729 80.25 210.812 80.875C210.896 81.5 210.958 82.1667 211 82.875C211.083 83.5417 211.125 84.1458 211.125 84.6875ZM245.25 84.6875C245.25 85.6458 244.958 86.2708 244.375 86.5625C243.833 86.8542 243.167 87 242.375 87C241.667 87 240.958 86.9375 240.25 86.8125C239.583 86.7292 238.938 86.5417 238.312 86.25C237.729 85.9583 237.208 85.5625 236.75 85.0625C236.333 84.5625 236.042 83.9167 235.875 83.125C235.292 80.625 234.958 78.1875 234.875 75.8125C234.792 73.3958 234.75 70.9167 234.75 68.375V60.6875C234.75 57.1875 234.896 53.5625 235.188 49.8125C235.479 46.0208 235.792 42.375 236.125 38.875C236.125 38.75 236.146 38.6042 236.188 38.4375C236.229 38.2708 236.25 38.1458 236.25 38.0625C236.292 37.6042 236.354 37.1042 236.438 36.5625C236.521 36.0208 236.646 35.5417 236.812 35.125C237.021 34.6667 237.292 34.2917 237.625 34C238 33.7083 238.479 33.5625 239.062 33.5625C239.729 33.5625 240.354 33.7083 240.938 34C241.562 34.25 242.104 34.6042 242.562 35.0625C243.021 35.4792 243.375 36 243.625 36.625C243.917 37.25 244.062 37.8958 244.062 38.5625C244.062 39.3958 244.021 40.2708 243.938 41.1875C243.896 42.0625 243.833 42.9167 243.75 43.75C243.667 44.3333 243.604 44.7708 243.562 45.0625C243.562 45.3542 243.542 45.8333 243.5 46.5C244 45.625 244.562 44.75 245.188 43.875C245.854 42.9583 246.583 42.1667 247.375 41.5C248.167 40.7917 249.021 40.2292 249.938 39.8125C250.896 39.3542 251.917 39.125 253 39.125C254.083 39.125 254.979 39.3125 255.688 39.6875C256.396 40.0208 256.958 40.5 257.375 41.125C257.792 41.7083 258.083 42.4167 258.25 43.25C258.417 44.0833 258.5 44.9583 258.5 45.875C258.5 46.4583 258.479 47.0208 258.438 47.5625C258.438 48.1042 258.417 48.6458 258.375 49.1875C258.333 49.7292 258.292 50.2708 258.25 50.8125C258.25 51.3125 258.25 51.8542 258.25 52.4375C258.25 53.5208 258.271 54.5625 258.312 55.5625C258.396 56.5208 258.479 57.5417 258.562 58.625C258.979 57.25 259.479 55.6875 260.062 53.9375C260.688 52.1875 261.396 50.3958 262.188 48.5625C263.021 46.7292 263.917 44.9375 264.875 43.1875C265.875 41.3958 266.938 39.8125 268.062 38.4375C269.229 37.0625 270.479 35.9583 271.812 35.125C273.146 34.25 274.542 33.8125 276 33.8125C278.292 33.8125 279.896 34.4792 280.812 35.8125C281.771 37.1458 282.25 38.8542 282.25 40.9375C282.25 41.5208 282.229 42.1458 282.188 42.8125C282.146 43.4375 282.083 44.0417 282 44.625C281.792 46.875 281.625 49.1875 281.5 51.5625C281.417 53.9375 281.375 56.25 281.375 58.5V59.6875C281.375 62.6042 281.5 65.3542 281.75 67.9375C282 70.5208 282.5 73.25 283.25 76.125L283.75 77.8125C283.917 78.3958 284.104 79.0417 284.312 79.75C284.562 80.4583 284.771 81.1458 284.938 81.8125C285.104 82.4792 285.25 83.1042 285.375 83.6875C285.5 84.2708 285.562 84.7292 285.562 85.0625C285.562 85.9375 285.25 86.5208 284.625 86.8125C284 87.1042 283.354 87.25 282.688 87.25C282.271 87.25 281.792 87.2292 281.25 87.1875C280.708 87.1875 280.167 87.125 279.625 87C279.125 86.9167 278.625 86.7708 278.125 86.5625C277.667 86.3542 277.292 86.0833 277 85.75V85.8125C276.625 85.4375 276.354 84.9792 276.188 84.4375C276.021 83.8958 275.896 83.3542 275.812 82.8125L275.688 82.25C275.104 80 274.604 77.9792 274.188 76.1875C273.812 74.3958 273.5 72.6042 273.25 70.8125C273 69.0208 272.812 67.1667 272.688 65.25C272.604 63.3333 272.562 61.125 272.562 58.625C272.562 56.5 272.646 54.3333 272.812 52.125C273.021 49.9167 273.229 47.75 273.438 45.625C273.438 45.4167 273.438 45.1875 273.438 44.9375C273.479 44.6458 273.521 44.3958 273.562 44.1875C271.979 46.6458 270.583 49.3542 269.375 52.3125C268.208 55.2292 267.146 58.2292 266.188 61.3125C265.271 64.3958 264.458 67.5 263.75 70.625C263.083 73.7083 262.479 76.6458 261.938 79.4375C261.938 79.4792 262.021 79.7292 262.188 80.1875C262.396 80.6042 262.583 81.1042 262.75 81.6875C262.958 82.2292 263.146 82.7708 263.312 83.3125C263.479 83.8125 263.562 84.1458 263.562 84.3125C263.562 85.2708 263.25 85.8542 262.625 86.0625C262 86.2708 261.354 86.375 260.688 86.375C260.188 86.375 259.646 86.3542 259.062 86.3125C258.479 86.2708 257.896 86.1667 257.312 86C256.771 85.8333 256.25 85.6042 255.75 85.3125C255.292 85.0625 254.917 84.6875 254.625 84.1875C254.375 83.7708 254.083 82.7917 253.75 81.25C253.417 79.6667 253.062 77.8333 252.688 75.75C252.312 73.625 251.958 71.3542 251.625 68.9375C251.292 66.5208 250.979 64.2292 250.688 62.0625C250.396 59.8958 250.167 58 250 56.375C249.833 54.75 249.75 53.6458 249.75 53.0625V52.125C248.417 55 247.312 58.0833 246.438 61.375C245.562 64.6667 244.896 67.8958 244.438 71.0625L244.188 72.1875C244.104 72.5208 244.042 72.8542 244 73.1875C243.958 73.4792 243.938 73.7708 243.938 74.0625C243.938 74.5208 243.979 75.0833 244.062 75.75C244.188 76.4167 244.333 77.1458 244.5 77.9375C244.708 79.0208 244.875 80.1458 245 81.3125C245.167 82.4375 245.25 83.5625 245.25 84.6875ZM313.75 73.5625C313.75 74.8125 313.396 76.1042 312.688 77.4375C312.021 78.7708 311.146 80 310.062 81.125C308.979 82.2083 307.729 83.1042 306.312 83.8125C304.938 84.5208 303.562 84.875 302.188 84.875C300.229 84.875 298.542 84.5 297.125 83.75C295.708 82.9583 294.479 81.9167 293.438 80.625C292.396 79.2917 291.542 77.7917 290.875 76.125C290.25 74.4583 289.75 72.75 289.375 71C289 69.2083 288.729 67.4375 288.562 65.6875C288.438 63.8958 288.375 62.2708 288.375 60.8125C288.375 59.5625 288.438 58.0833 288.562 56.375C288.729 54.6667 288.979 52.8958 289.312 51.0625C289.688 49.2292 290.188 47.4167 290.812 45.625C291.438 43.8333 292.208 42.2292 293.125 40.8125C294.083 39.3958 295.208 38.25 296.5 37.375C297.833 36.5 299.354 36.0625 301.062 36.0625C302.396 36.0625 303.583 36.3333 304.625 36.875C305.708 37.4167 306.604 38.1458 307.312 39.0625C308.062 39.9375 308.625 40.9583 309 42.125C309.417 43.2917 309.625 44.5 309.625 45.75C309.625 47.375 309.25 49.1458 308.5 51.0625C307.75 52.9792 306.771 54.8333 305.562 56.625C304.396 58.4167 303.062 60.0417 301.562 61.5C300.104 62.9167 298.646 64 297.188 64.75C297.271 65.5 297.438 66.6042 297.688 68.0625C297.938 69.4792 298.271 70.8958 298.688 72.3125C299.146 73.7292 299.667 74.9583 300.25 76C300.875 77.0417 301.604 77.5625 302.438 77.5625C302.854 77.5625 303.208 77.4375 303.5 77.1875C303.833 76.9375 304.125 76.6042 304.375 76.1875C304.625 75.7708 304.833 75.3125 305 74.8125C305.208 74.3125 305.396 73.8333 305.562 73.375L305.938 72.5C306.021 72.375 306.062 72.2917 306.062 72.25C306.104 72.2083 306.146 72.1458 306.188 72.0625C306.479 71.5208 306.75 71.0208 307 70.5625C307.292 70.1042 307.688 69.7083 308.188 69.375H308.125C308.292 69.2083 308.458 69.125 308.625 69.125C308.833 69.0833 309.021 69.0625 309.188 69.0625C309.646 69.0625 310.146 69.2083 310.688 69.5C311.229 69.7917 311.729 70.1667 312.188 70.625C312.646 71.0417 313.021 71.5208 313.312 72.0625C313.604 72.5625 313.75 73.0625 313.75 73.5625ZM301.375 46C301.375 45.5833 301.354 45.1458 301.312 44.6875C301.271 44.2292 301.167 43.8333 301 43.5C300.417 44.2083 299.896 45.0625 299.438 46.0625C299.021 47.0208 298.667 48.0417 298.375 49.125C298.083 50.1667 297.833 51.2292 297.625 52.3125C297.458 53.3958 297.333 54.3958 297.25 55.3125C298.333 54.0208 299.292 52.5625 300.125 50.9375C300.958 49.2708 301.375 47.625 301.375 46Z" fill="white"/>
</svg>
